%FSLAX44Y44*%
%MOMM*%
G71*
G01*
G75*
G04 Layer_Color=32896*
%ADD10R,1.7000X1.2500*%
%ADD11R,10.0000X13.5000*%
%ADD12R,1.8000X4.0000*%
G04:AMPARAMS|DCode=13|XSize=0.7mm|YSize=1.1mm|CornerRadius=0mm|HoleSize=0mm|Usage=FLASHONLY|Rotation=270.000|XOffset=0mm|YOffset=0mm|HoleType=Round|Shape=Octagon|*
%AMOCTAGOND13*
4,1,8,0.5500,0.1750,0.5500,-0.1750,0.3750,-0.3500,-0.3750,-0.3500,-0.5500,-0.1750,-0.5500,0.1750,-0.3750,0.3500,0.3750,0.3500,0.5500,0.1750,0.0*
%
%ADD13OCTAGOND13*%

%ADD14R,1.1000X0.7000*%
%ADD15R,0.9500X1.0000*%
%ADD16R,4.0000X2.5000*%
%ADD17R,1.6000X1.8000*%
%ADD18R,1.4500X2.8000*%
%ADD19R,1.1000X0.9500*%
%ADD20C,0.5000*%
%ADD21C,1.0000*%
%ADD22C,0.6800*%
%ADD23C,0.3000*%
%ADD24R,1.6000X1.6000*%
%ADD25C,3.6000*%
%ADD26O,3.5000X3.0000*%
%ADD27R,3.5000X3.0000*%
%ADD28C,0.8000*%
%ADD29C,0.2000*%
%ADD30C,0.0254*%
%ADD31R,1.9000X1.4500*%
%ADD32R,10.2000X13.7000*%
%ADD33R,2.0000X4.2000*%
G04:AMPARAMS|DCode=34|XSize=0.9mm|YSize=1.3mm|CornerRadius=0mm|HoleSize=0mm|Usage=FLASHONLY|Rotation=270.000|XOffset=0mm|YOffset=0mm|HoleType=Round|Shape=Octagon|*
%AMOCTAGOND34*
4,1,8,0.6500,0.2250,0.6500,-0.2250,0.4250,-0.4500,-0.4250,-0.4500,-0.6500,-0.2250,-0.6500,0.2250,-0.4250,0.4500,0.4250,0.4500,0.6500,0.2250,0.0*
%
%ADD34OCTAGOND34*%

%ADD35R,1.3000X0.9000*%
%ADD36R,1.1500X1.2000*%
%ADD37R,4.2000X2.7000*%
%ADD38R,1.8000X2.0000*%
%ADD39R,1.6500X3.0000*%
%ADD40R,1.3000X1.1500*%
%ADD41R,1.8000X1.8000*%
%ADD42C,3.8000*%
%ADD43O,3.7000X3.2000*%
%ADD44R,3.7000X3.2000*%
%ADD45C,1.0000*%
%ADD46C,0.0508*%
D29*
X124250Y59751D02*
G03*
X124250Y59751I-35000J0D01*
G01*
X489500Y215500D02*
G03*
X489500Y215500I-35000J0D01*
G01*
X405757Y27750D02*
Y39746D01*
X401758Y35748D01*
X397759Y39746D01*
Y27750D01*
X387762Y39746D02*
X391761D01*
X393760Y37747D01*
Y29750D01*
X391761Y27750D01*
X387762D01*
X385763Y29750D01*
Y37747D01*
X387762Y39746D01*
X373767Y37747D02*
X375766Y39746D01*
X379765D01*
X381764Y37747D01*
Y35748D01*
X379765Y33748D01*
X375766D01*
X373767Y31749D01*
Y29750D01*
X375766Y27750D01*
X379765D01*
X381764Y29750D01*
X361771Y39746D02*
X369768D01*
Y33748D01*
X365770D01*
X369768D01*
Y27750D01*
X349775Y39746D02*
X357772D01*
Y27750D01*
X349775D01*
X357772Y33748D02*
X353773D01*
X345776Y39746D02*
X337779D01*
X341777D01*
Y27750D01*
X313786Y37747D02*
X315786Y39746D01*
X319785D01*
X321784Y37747D01*
Y35748D01*
X319785Y33748D01*
X315786D01*
X313786Y31749D01*
Y29750D01*
X315786Y27750D01*
X319785D01*
X321784Y29750D01*
X309788Y39746D02*
Y27750D01*
X305789Y31749D01*
X301790Y27750D01*
Y39746D01*
X297792D02*
X293793D01*
X295792D01*
Y27750D01*
X297792D01*
X293793D01*
X287795Y39746D02*
X279797D01*
X283796D01*
Y27750D01*
X267801Y37747D02*
X269801Y39746D01*
X273799D01*
X275799Y37747D01*
Y29750D01*
X273799Y27750D01*
X269801D01*
X267801Y29750D01*
X263803Y39746D02*
Y27750D01*
Y33748D01*
X255805D01*
Y39746D01*
Y27750D01*
X377766Y7750D02*
X385763D01*
X377766Y15747D01*
Y17747D01*
X379765Y19746D01*
X383764D01*
X385763Y17747D01*
X373767Y19746D02*
X365770D01*
Y17747D01*
X373767Y9750D01*
Y7750D01*
X361771D02*
Y9750D01*
X359771D01*
Y7750D01*
X361771D01*
X351774Y17747D02*
X349775Y19746D01*
X345776D01*
X343777Y17747D01*
Y9750D01*
X345776Y7750D01*
X349775D01*
X351774Y9750D01*
Y17747D01*
X339778D02*
X337779Y19746D01*
X333780D01*
X331781Y17747D01*
Y15747D01*
X333780Y13748D01*
X331781Y11749D01*
Y9750D01*
X333780Y7750D01*
X337779D01*
X339778Y9750D01*
Y11749D01*
X337779Y13748D01*
X339778Y15747D01*
Y17747D01*
X337779Y13748D02*
X333780D01*
X327782Y7750D02*
Y9750D01*
X325783D01*
Y7750D01*
X327782D01*
X309788D02*
X317785D01*
X309788Y15747D01*
Y17747D01*
X311787Y19746D01*
X315786D01*
X317785Y17747D01*
X305789D02*
X303790Y19746D01*
X299791D01*
X297792Y17747D01*
Y9750D01*
X299791Y7750D01*
X303790D01*
X305789Y9750D01*
Y17747D01*
X293793Y7750D02*
X289794D01*
X291793D01*
Y19746D01*
X293793Y17747D01*
X275799Y19746D02*
X283796D01*
Y13748D01*
X279797Y15747D01*
X277798D01*
X275799Y13748D01*
Y9750D01*
X277798Y7750D01*
X281797D01*
X283796Y9750D01*
D46*
X228504Y54234D02*
X243744D01*
X249840D02*
X273716D01*
X322992D02*
X338740D01*
X358044D02*
X373792D01*
X376840D02*
X392588D01*
X407320D02*
X423576D01*
X227996Y54742D02*
X244252D01*
X249332D02*
X274224D01*
X322992D02*
X338740D01*
X358044D02*
X373792D01*
X376332D02*
X392588D01*
X406812D02*
X423576D01*
X227996Y55250D02*
X244252D01*
X248824D02*
X274732D01*
X322992D02*
X338740D01*
X358044D02*
X373792D01*
X376332D02*
X392588D01*
X406304D02*
X423576D01*
X227996Y55758D02*
X244252D01*
X248316D02*
X275240D01*
X322992D02*
X338740D01*
X358044D02*
X373792D01*
X376332D02*
X392588D01*
X405796D02*
X423576D01*
X227996Y56266D02*
X244252D01*
X247808D02*
X275748D01*
X322992D02*
X338740D01*
X358044D02*
X373792D01*
X376332D02*
X392588D01*
X405288D02*
X423576D01*
X227996Y56774D02*
X244252D01*
X247808D02*
X276256D01*
X322992D02*
X338740D01*
X358044D02*
X373792D01*
X376332D02*
X392588D01*
X404780D02*
X423576D01*
X227996Y57282D02*
X244252D01*
X246792D02*
X276764D01*
X322992D02*
X338740D01*
X358044D02*
X373792D01*
X376332D02*
X392588D01*
X404272D02*
X423576D01*
X227996Y57790D02*
X244252D01*
X246792D02*
X277272D01*
X322992D02*
X338740D01*
X358044D02*
X373792D01*
X376332D02*
X392588D01*
X403764D02*
X423576D01*
X227996Y58298D02*
X244252D01*
X246284D02*
X277780D01*
X322992D02*
X338740D01*
X358044D02*
X373792D01*
X376332D02*
X392588D01*
X403256D02*
X423576D01*
X227996Y58806D02*
X244252D01*
X245776D02*
X278288D01*
X322992D02*
X338740D01*
X358044D02*
X373792D01*
X376332D02*
X392588D01*
X402748D02*
X423576D01*
X227996Y59314D02*
X244252D01*
X245268D02*
X278796D01*
X322992D02*
X338740D01*
X358044D02*
X373792D01*
X376332D02*
X392588D01*
X402240D02*
X423576D01*
X227996Y59822D02*
X244252D01*
X244760D02*
X279304D01*
X322992D02*
X338740D01*
X358044D02*
X373792D01*
X376332D02*
X392588D01*
X401732D02*
X423576D01*
X227996Y60330D02*
X279812D01*
X322992D02*
X338740D01*
X358044D02*
X373792D01*
X376332D02*
X392588D01*
X401224D02*
X423576D01*
X227996Y60838D02*
X280320D01*
X322992D02*
X338740D01*
X358044D02*
X373792D01*
X376332D02*
X392588D01*
X400716D02*
X423576D01*
X227996Y61346D02*
X280828D01*
X322992D02*
X338740D01*
X358044D02*
X373792D01*
X376332D02*
X392588D01*
X400208D02*
X423576D01*
X227996Y61854D02*
X281336D01*
X322992D02*
X338740D01*
X358044D02*
X373792D01*
X376332D02*
X392588D01*
X399700D02*
X423576D01*
X227996Y62362D02*
X281844D01*
X322992D02*
X338740D01*
X358044D02*
X373792D01*
X376332D02*
X392588D01*
X399192D02*
X423576D01*
X227996Y62870D02*
X282352D01*
X322992D02*
X338740D01*
X358044D02*
X373792D01*
X376332D02*
X392588D01*
X398684D02*
X423576D01*
X227996Y63378D02*
X282860D01*
X322992D02*
X338740D01*
X358044D02*
X373792D01*
X376332D02*
X392588D01*
X398176D02*
X423576D01*
X227996Y63886D02*
X283368D01*
X322992D02*
X338740D01*
X358044D02*
X373792D01*
X376332D02*
X392588D01*
X397668D02*
X423576D01*
X227996Y64394D02*
X283876D01*
X322992D02*
X338740D01*
X358044D02*
X373792D01*
X376332D02*
X392588D01*
X397160D02*
X423576D01*
X227996Y64902D02*
X284384D01*
X322992D02*
X338740D01*
X358044D02*
X373792D01*
X376332D02*
X392588D01*
X396652D02*
X423576D01*
X227996Y65410D02*
X284892D01*
X322992D02*
X338740D01*
X358044D02*
X373792D01*
X376332D02*
X392588D01*
X396144D02*
X423576D01*
X227996Y65918D02*
X285400D01*
X322992D02*
X338740D01*
X358044D02*
X373792D01*
X376332D02*
X392588D01*
X395636D02*
X423576D01*
X227996Y66426D02*
X285908D01*
X322992D02*
X338740D01*
X358044D02*
X373792D01*
X376332D02*
X392588D01*
X395128D02*
X423576D01*
X227996Y66934D02*
X286416D01*
X322992D02*
X338740D01*
X358044D02*
X373792D01*
X376332D02*
X392588D01*
X394620D02*
X423576D01*
X227996Y67442D02*
X286924D01*
X322992D02*
X338740D01*
X358044D02*
X373792D01*
X376332D02*
X392588D01*
X394112D02*
X423576D01*
X227996Y67950D02*
X287432D01*
X322992D02*
X338740D01*
X358044D02*
X373792D01*
X376332D02*
X392588D01*
X393604D02*
X423576D01*
X227996Y68458D02*
X287940D01*
X322992D02*
X338740D01*
X358044D02*
X373792D01*
X376332D02*
X392588D01*
X393096D02*
X423576D01*
X227996Y68966D02*
X288448D01*
X322992D02*
X338740D01*
X358044D02*
X373792D01*
X376332D02*
X423576D01*
X227996Y69474D02*
X288956D01*
X322992D02*
X338740D01*
X358044D02*
X373792D01*
X376332D02*
X423576D01*
X227996Y69982D02*
X289464D01*
X306736D02*
X338740D01*
X358044D02*
X373792D01*
X376332D02*
X423576D01*
X227996Y70490D02*
X264572D01*
X273716D02*
X289464D01*
X306228D02*
X338740D01*
X358044D02*
X373792D01*
X376332D02*
X423576D01*
X227996Y70998D02*
X244252D01*
X244760D02*
X265080D01*
X273716D02*
X289464D01*
X305720D02*
X338740D01*
X358044D02*
X373792D01*
X376332D02*
X423576D01*
X227996Y71506D02*
X244252D01*
X244760D02*
X265588D01*
X273716D02*
X289464D01*
X305212D02*
X338740D01*
X358044D02*
X373792D01*
X376332D02*
X423576D01*
X227996Y72014D02*
X244252D01*
X245268D02*
X266096D01*
X273716D02*
X289464D01*
X304704D02*
X338740D01*
X358044D02*
X373792D01*
X376332D02*
X423576D01*
X227996Y72522D02*
X244252D01*
X245776D02*
X266096D01*
X273716D02*
X289464D01*
X304196D02*
X338740D01*
X358044D02*
X373792D01*
X376332D02*
X423576D01*
X227996Y73030D02*
X244252D01*
X246284D02*
X266604D01*
X273716D02*
X289464D01*
X303688D02*
X338740D01*
X358044D02*
X373792D01*
X376332D02*
X423576D01*
X227996Y73538D02*
X244252D01*
X246792D02*
X267112D01*
X273716D02*
X289464D01*
X303180D02*
X338740D01*
X358044D02*
X373792D01*
X376332D02*
X423576D01*
X227996Y74046D02*
X244252D01*
X247300D02*
X267620D01*
X273716D02*
X289464D01*
X302672D02*
X338740D01*
X358044D02*
X373792D01*
X376332D02*
X423576D01*
X227996Y74554D02*
X244252D01*
X247808D02*
X268128D01*
X273716D02*
X289464D01*
X302164D02*
X338740D01*
X358044D02*
X373792D01*
X376332D02*
X423576D01*
X227996Y75062D02*
X244252D01*
X248316D02*
X268636D01*
X273716D02*
X289464D01*
X301656D02*
X322484D01*
X322992D02*
X338740D01*
X358044D02*
X373792D01*
X376332D02*
X423576D01*
X227996Y75570D02*
X244252D01*
X248824D02*
X269144D01*
X273716D02*
X289464D01*
X301148D02*
X321976D01*
X322992D02*
X338740D01*
X358044D02*
X373792D01*
X376332D02*
X423576D01*
X227996Y76078D02*
X244252D01*
X248824D02*
X269144D01*
X273716D02*
X289464D01*
X300640D02*
X321468D01*
X322992D02*
X338740D01*
X358044D02*
X373792D01*
X376332D02*
X406812D01*
X407320D02*
X423576D01*
X227996Y76586D02*
X244252D01*
X249332D02*
X269652D01*
X273716D02*
X289464D01*
X300132D02*
X320960D01*
X322992D02*
X338740D01*
X358044D02*
X373792D01*
X376332D02*
X406304D01*
X407320D02*
X423576D01*
X227996Y77094D02*
X244252D01*
X249840D02*
X270160D01*
X273716D02*
X289464D01*
X299624D02*
X320452D01*
X322992D02*
X338740D01*
X358044D02*
X373792D01*
X376332D02*
X405796D01*
X407320D02*
X423576D01*
X227996Y77602D02*
X244252D01*
X250348D02*
X270668D01*
X273716D02*
X289464D01*
X299116D02*
X319944D01*
X322992D02*
X338740D01*
X358044D02*
X373792D01*
X376332D02*
X405288D01*
X407320D02*
X423576D01*
X227996Y78110D02*
X244252D01*
X250856D02*
X271176D01*
X273716D02*
X289464D01*
X298608D02*
X319436D01*
X322992D02*
X338740D01*
X358044D02*
X373792D01*
X376332D02*
X404780D01*
X407320D02*
X423576D01*
X227996Y78618D02*
X244252D01*
X251364D02*
X271684D01*
X273716D02*
X289464D01*
X298100D02*
X318928D01*
X322992D02*
X338740D01*
X358044D02*
X373792D01*
X376332D02*
X404272D01*
X407320D02*
X423576D01*
X227996Y79126D02*
X244252D01*
X251872D02*
X272192D01*
X273716D02*
X289464D01*
X297592D02*
X318420D01*
X322992D02*
X338740D01*
X358044D02*
X373792D01*
X376332D02*
X403764D01*
X407320D02*
X423576D01*
X227996Y79634D02*
X244252D01*
X251872D02*
X272700D01*
X273716D02*
X289464D01*
X297592D02*
X317912D01*
X322992D02*
X338740D01*
X358044D02*
X373792D01*
X376332D02*
X403256D01*
X407320D02*
X423576D01*
X227996Y80142D02*
X244252D01*
X252380D02*
X272700D01*
X273716D02*
X289464D01*
X297084D02*
X317404D01*
X322992D02*
X338740D01*
X358044D02*
X373792D01*
X376332D02*
X402748D01*
X407320D02*
X423576D01*
X227996Y80650D02*
X244252D01*
X252888D02*
X273208D01*
X273716D02*
X289464D01*
X296576D02*
X316896D01*
X322992D02*
X338740D01*
X358044D02*
X373792D01*
X376332D02*
X402240D01*
X407320D02*
X423576D01*
X227996Y81158D02*
X244252D01*
X253396D02*
X289464D01*
X296068D02*
X316388D01*
X322992D02*
X338740D01*
X358044D02*
X373792D01*
X376332D02*
X401732D01*
X407320D02*
X423576D01*
X227996Y81666D02*
X244252D01*
X253904D02*
X289464D01*
X295560D02*
X315880D01*
X322992D02*
X338740D01*
X358044D02*
X373792D01*
X376332D02*
X401224D01*
X407320D02*
X423576D01*
X227996Y82174D02*
X244252D01*
X254412D02*
X289464D01*
X295052D02*
X315372D01*
X322992D02*
X338740D01*
X358044D02*
X373792D01*
X376332D02*
X400716D01*
X407320D02*
X423576D01*
X227996Y82682D02*
X244252D01*
X254920D02*
X289464D01*
X294544D02*
X314864D01*
X322992D02*
X338740D01*
X358044D02*
X373792D01*
X376332D02*
X400208D01*
X407320D02*
X423576D01*
X227996Y83190D02*
X244252D01*
X255428D02*
X289464D01*
X294036D02*
X314356D01*
X322992D02*
X338740D01*
X358044D02*
X373792D01*
X376332D02*
X399700D01*
X407320D02*
X423576D01*
X227996Y83698D02*
X244252D01*
X255936D02*
X289464D01*
X293528D02*
X313848D01*
X322992D02*
X338740D01*
X358044D02*
X373792D01*
X376332D02*
X399192D01*
X407320D02*
X423576D01*
X227996Y84206D02*
X244252D01*
X255936D02*
X289464D01*
X293020D02*
X313340D01*
X322992D02*
X338740D01*
X358044D02*
X373792D01*
X376332D02*
X398684D01*
X407320D02*
X423576D01*
X227996Y84714D02*
X244252D01*
X256444D02*
X289464D01*
X292512D02*
X312832D01*
X322992D02*
X338740D01*
X358044D02*
X373792D01*
X376332D02*
X398176D01*
X407320D02*
X423576D01*
X227996Y85222D02*
X244252D01*
X273716D02*
X289464D01*
X292004D02*
X338740D01*
X342296D02*
X373792D01*
X376332D02*
X397668D01*
X407320D02*
X423576D01*
X227996Y85730D02*
X244252D01*
X273716D02*
X289464D01*
X292004D02*
X338232D01*
X341788D02*
X373284D01*
X376332D02*
X397160D01*
X407320D02*
X423576D01*
X227996Y86238D02*
X244252D01*
X273716D02*
X289464D01*
X292004D02*
X337724D01*
X341280D02*
X372776D01*
X376332D02*
X396652D01*
X407320D02*
X423576D01*
X227996Y86746D02*
X244252D01*
X273716D02*
X289464D01*
X292004D02*
X337216D01*
X340772D02*
X372268D01*
X376332D02*
X395636D01*
X407320D02*
X423576D01*
X227996Y87254D02*
X244252D01*
X273716D02*
X289464D01*
X292004D02*
X336708D01*
X340264D02*
X371760D01*
X376332D02*
X395128D01*
X407320D02*
X423576D01*
X227996Y87762D02*
X244252D01*
X273716D02*
X289464D01*
X292004D02*
X336200D01*
X339756D02*
X371252D01*
X376332D02*
X394620D01*
X407320D02*
X423576D01*
X227996Y88270D02*
X244252D01*
X273716D02*
X289464D01*
X292004D02*
X335692D01*
X339248D02*
X370744D01*
X376332D02*
X394112D01*
X407320D02*
X423576D01*
X227996Y88778D02*
X244252D01*
X273716D02*
X289464D01*
X292004D02*
X335184D01*
X338740D02*
X370236D01*
X376332D02*
X393604D01*
X407320D02*
X423576D01*
X227996Y89286D02*
X244252D01*
X273716D02*
X289464D01*
X292004D02*
X334676D01*
X338232D02*
X369728D01*
X376332D02*
X393096D01*
X407320D02*
X423576D01*
X227996Y89794D02*
X244252D01*
X273716D02*
X289464D01*
X292004D02*
X334168D01*
X337724D02*
X369220D01*
X376332D02*
X392588D01*
X407320D02*
X423576D01*
X227996Y90302D02*
X244252D01*
X273716D02*
X289464D01*
X292004D02*
X333660D01*
X337216D02*
X368712D01*
X376332D02*
X392080D01*
X407320D02*
X423576D01*
X227996Y90810D02*
X244252D01*
X273716D02*
X289464D01*
X292004D02*
X333152D01*
X336708D02*
X368204D01*
X376332D02*
X391572D01*
X407320D02*
X423576D01*
X227996Y91318D02*
X244252D01*
X273716D02*
X289464D01*
X292004D02*
X332644D01*
X336200D02*
X367696D01*
X376332D02*
X391064D01*
X407320D02*
X423576D01*
X227996Y91826D02*
X244252D01*
X273716D02*
X289464D01*
X292004D02*
X332136D01*
X335692D02*
X367188D01*
X376332D02*
X390556D01*
X407320D02*
X423576D01*
X227996Y92334D02*
X244252D01*
X273716D02*
X289464D01*
X292004D02*
X331628D01*
X335184D02*
X366680D01*
X376332D02*
X390048D01*
X407320D02*
X423576D01*
X227996Y92842D02*
X244252D01*
X273716D02*
X289464D01*
X292004D02*
X331120D01*
X334676D02*
X366172D01*
X376332D02*
X389540D01*
X407320D02*
X423576D01*
X227996Y93350D02*
X244252D01*
X273716D02*
X289464D01*
X292004D02*
X330612D01*
X334168D02*
X365664D01*
X376332D02*
X389032D01*
X407320D02*
X423576D01*
X227996Y93858D02*
X244252D01*
X273716D02*
X289464D01*
X292004D02*
X330104D01*
X333660D02*
X365156D01*
X376332D02*
X388524D01*
X407320D02*
X423576D01*
X227996Y94366D02*
X244252D01*
X273716D02*
X289464D01*
X292004D02*
X329596D01*
X333152D02*
X364140D01*
X376332D02*
X388016D01*
X407320D02*
X423576D01*
X227996Y94874D02*
X244252D01*
X273716D02*
X289464D01*
X292004D02*
X329088D01*
X332644D02*
X363632D01*
X376332D02*
X387508D01*
X407320D02*
X423576D01*
X227996Y95382D02*
X244252D01*
X273716D02*
X289464D01*
X292004D02*
X328580D01*
X332136D02*
X363124D01*
X376332D02*
X387000D01*
X407320D02*
X423576D01*
X227996Y95890D02*
X244252D01*
X273716D02*
X289464D01*
X292004D02*
X328072D01*
X331628D02*
X362616D01*
X376332D02*
X385984D01*
X407320D02*
X423576D01*
X227996Y96398D02*
X244252D01*
X273716D02*
X289464D01*
X292004D02*
X327564D01*
X331120D02*
X362108D01*
X376332D02*
X385476D01*
X407320D02*
X423576D01*
X227996Y96906D02*
X244252D01*
X273716D02*
X289464D01*
X292004D02*
X327056D01*
X330612D02*
X361600D01*
X376332D02*
X384968D01*
X407320D02*
X423576D01*
X227996Y97414D02*
X244252D01*
X273716D02*
X289464D01*
X292004D02*
X326548D01*
X330104D02*
X361092D01*
X376332D02*
X384460D01*
X407320D02*
X423576D01*
X227996Y97922D02*
X244252D01*
X273716D02*
X289464D01*
X292004D02*
X326040D01*
X329596D02*
X360584D01*
X376332D02*
X383952D01*
X407320D02*
X423576D01*
X227996Y98430D02*
X244252D01*
X273716D02*
X289464D01*
X292004D02*
X325532D01*
X329088D02*
X360076D01*
X376332D02*
X383444D01*
X407320D02*
X423576D01*
X227996Y98938D02*
X244252D01*
X273716D02*
X289464D01*
X292004D02*
X325024D01*
X328580D02*
X359568D01*
X376332D02*
X382936D01*
X407320D02*
X423576D01*
X227996Y99446D02*
X244252D01*
X273716D02*
X289464D01*
X292004D02*
X324516D01*
X328072D02*
X359060D01*
X376332D02*
X382428D01*
X407320D02*
X423576D01*
X227996Y99954D02*
X244252D01*
X273716D02*
X289464D01*
X292004D02*
X324008D01*
X327564D02*
X358552D01*
X376332D02*
X381920D01*
X407320D02*
X423576D01*
X227996Y100462D02*
X243744D01*
X273716D02*
X288956D01*
X292512D02*
X323500D01*
X327056D02*
X358044D01*
X376840D02*
X381412D01*
X407320D02*
X423576D01*
X304704Y109098D02*
X308260D01*
X415956D02*
X419004D01*
X227996Y109606D02*
X239172D01*
X248824D02*
X253904D01*
X257968D02*
X267112D01*
X276764D02*
X281336D01*
X283876D02*
X288956D01*
X303180D02*
X309784D01*
X323500D02*
X334168D01*
X348900D02*
X358044D01*
X376332D02*
X380904D01*
X391064D02*
X401732D01*
X413924D02*
X420528D01*
X227996Y110114D02*
X239172D01*
X248824D02*
X253904D01*
X257460D02*
X267112D01*
X276764D02*
X281336D01*
X283876D02*
X288956D01*
X302164D02*
X310800D01*
X323500D02*
X334168D01*
X347884D02*
X358044D01*
X376332D02*
X380904D01*
X391064D02*
X401732D01*
X413416D02*
X421544D01*
X227996Y110622D02*
X239172D01*
X248824D02*
X253904D01*
X256444D02*
X267112D01*
X276764D02*
X281336D01*
X283876D02*
X288956D01*
X301656D02*
X311308D01*
X323500D02*
X334168D01*
X347376D02*
X358044D01*
X376332D02*
X380904D01*
X391064D02*
X401732D01*
X412908D02*
X422052D01*
X227996Y111130D02*
X239172D01*
X248824D02*
X253904D01*
X255936D02*
X267112D01*
X276764D02*
X281336D01*
X283876D02*
X288956D01*
X301148D02*
X311816D01*
X323500D02*
X334168D01*
X346868D02*
X358044D01*
X376332D02*
X380904D01*
X391064D02*
X401732D01*
X412400D02*
X422560D01*
X227996Y111638D02*
X239172D01*
X248824D02*
X253904D01*
X255936D02*
X267112D01*
X276764D02*
X281336D01*
X283876D02*
X288956D01*
X301148D02*
X311816D01*
X323500D02*
X334168D01*
X346360D02*
X358044D01*
X376332D02*
X380904D01*
X391064D02*
X401732D01*
X411892D02*
X422560D01*
X227996Y112146D02*
X239172D01*
X248824D02*
X253904D01*
X255428D02*
X267112D01*
X276764D02*
X281336D01*
X283876D02*
X288956D01*
X300640D02*
X312324D01*
X323500D02*
X334168D01*
X346360D02*
X358044D01*
X376332D02*
X380904D01*
X391064D02*
X401732D01*
X411892D02*
X423068D01*
X227996Y112654D02*
X239172D01*
X248824D02*
X253904D01*
X255428D02*
X267112D01*
X276764D02*
X281336D01*
X283876D02*
X288956D01*
X300640D02*
X306228D01*
X307244D02*
X312324D01*
X323500D02*
X334168D01*
X345852D02*
X358044D01*
X376332D02*
X380904D01*
X391064D02*
X401732D01*
X411892D02*
X416972D01*
X417988D02*
X423068D01*
X228504Y113162D02*
X239172D01*
X248824D02*
X253904D01*
X255428D02*
X261016D01*
X262540D02*
X267112D01*
X276764D02*
X281336D01*
X283876D02*
X288956D01*
X300640D02*
X305212D01*
X307752D02*
X312324D01*
X324008D02*
X334168D01*
X345852D02*
X351948D01*
X352964D02*
X358044D01*
X376332D02*
X380904D01*
X391572D02*
X401732D01*
X411384D02*
X416464D01*
X418496D02*
X423068D01*
X234092Y113670D02*
X239172D01*
X248824D02*
X253904D01*
X255428D02*
X260508D01*
X262540D02*
X267112D01*
X276764D02*
X281336D01*
X283876D02*
X288956D01*
X300132D02*
X305212D01*
X307752D02*
X312324D01*
X329596D02*
X334168D01*
X345852D02*
X350932D01*
X352964D02*
X358044D01*
X376332D02*
X380904D01*
X397160D02*
X401732D01*
X411384D02*
X415956D01*
X418496D02*
X423576D01*
X234092Y114178D02*
X239172D01*
X248824D02*
X253904D01*
X254920D02*
X260000D01*
X262540D02*
X267112D01*
X276764D02*
X281336D01*
X283876D02*
X288956D01*
X300132D02*
X305212D01*
X308260D02*
X312832D01*
X329596D02*
X334168D01*
X345852D02*
X350424D01*
X352964D02*
X358044D01*
X376332D02*
X380904D01*
X397160D02*
X401732D01*
X411384D02*
X415956D01*
X418496D02*
X423576D01*
X234092Y114686D02*
X239172D01*
X248824D02*
X253904D01*
X254920D02*
X260000D01*
X262540D02*
X267112D01*
X276764D02*
X281336D01*
X283876D02*
X288956D01*
X300132D02*
X305212D01*
X308260D02*
X312832D01*
X329596D02*
X334168D01*
X345852D02*
X350424D01*
X352964D02*
X358044D01*
X376332D02*
X380904D01*
X397160D02*
X401732D01*
X411384D02*
X415956D01*
X418496D02*
X423576D01*
X234092Y115194D02*
X239172D01*
X248824D02*
X253904D01*
X254920D02*
X260000D01*
X262540D02*
X267112D01*
X276764D02*
X281336D01*
X283876D02*
X288956D01*
X300132D02*
X305212D01*
X308260D02*
X312832D01*
X329596D02*
X334168D01*
X345852D02*
X350424D01*
X352964D02*
X358044D01*
X376332D02*
X380904D01*
X397160D02*
X401732D01*
X411384D02*
X415956D01*
X418496D02*
X423576D01*
X234092Y115702D02*
X239172D01*
X248824D02*
X253904D01*
X254920D02*
X260000D01*
X262540D02*
X267112D01*
X276764D02*
X281336D01*
X283876D02*
X288956D01*
X300132D02*
X305212D01*
X308260D02*
X312832D01*
X329596D02*
X334168D01*
X345852D02*
X350424D01*
X352964D02*
X358044D01*
X376332D02*
X380904D01*
X397160D02*
X401732D01*
X411384D02*
X415956D01*
X418496D02*
X423576D01*
X234092Y116210D02*
X239172D01*
X248824D02*
X253904D01*
X254920D02*
X260000D01*
X262540D02*
X267112D01*
X276764D02*
X281336D01*
X283876D02*
X288956D01*
X300640D02*
X305212D01*
X308260D02*
X312832D01*
X329596D02*
X334168D01*
X345852D02*
X350424D01*
X352964D02*
X358044D01*
X376332D02*
X380904D01*
X397160D02*
X401732D01*
X411384D02*
X415956D01*
X418496D02*
X423576D01*
X234092Y116718D02*
X239172D01*
X248824D02*
X253904D01*
X254920D02*
X260000D01*
X262540D02*
X267112D01*
X276764D02*
X281336D01*
X283876D02*
X288956D01*
X300640D02*
X305212D01*
X329596D02*
X334168D01*
X345852D02*
X350424D01*
X352964D02*
X358044D01*
X376332D02*
X380904D01*
X397160D02*
X401732D01*
X411384D02*
X415956D01*
X418496D02*
X423576D01*
X234092Y117226D02*
X239172D01*
X248824D02*
X253904D01*
X255428D02*
X260000D01*
X262540D02*
X267112D01*
X276764D02*
X281336D01*
X284384D02*
X288956D01*
X300640D02*
X305720D01*
X329596D02*
X334168D01*
X345852D02*
X350932D01*
X352964D02*
X358044D01*
X375824D02*
X380904D01*
X397160D02*
X401732D01*
X411384D02*
X415956D01*
X418496D02*
X423576D01*
X229012Y117734D02*
X239172D01*
X248824D02*
X253904D01*
X255428D02*
X260508D01*
X262540D02*
X267112D01*
X276764D02*
X281336D01*
X283876D02*
X288956D01*
X300640D02*
X307752D01*
X324516D02*
X334168D01*
X345852D02*
X350932D01*
X352964D02*
X358044D01*
X371252D02*
X380904D01*
X392080D02*
X401732D01*
X418496D02*
X423576D01*
X229012Y118242D02*
X239172D01*
X248824D02*
X253904D01*
X255428D02*
X267112D01*
X276764D02*
X288956D01*
X301148D02*
X307752D01*
X324516D02*
X334168D01*
X345852D02*
X358044D01*
X370744D02*
X380904D01*
X392080D02*
X401732D01*
X418496D02*
X423576D01*
X229012Y118750D02*
X239172D01*
X248824D02*
X253904D01*
X255428D02*
X267112D01*
X276764D02*
X288956D01*
X301656D02*
X307752D01*
X324516D02*
X334168D01*
X346360D02*
X358044D01*
X370236D02*
X380904D01*
X392080D02*
X401732D01*
X418496D02*
X423576D01*
X229012Y119258D02*
X239172D01*
X248824D02*
X253904D01*
X255936D02*
X267112D01*
X276764D02*
X288956D01*
X302164D02*
X307752D01*
X324516D02*
X334168D01*
X346360D02*
X358044D01*
X369728D02*
X380904D01*
X392080D02*
X401732D01*
X418496D02*
X423576D01*
X229012Y119766D02*
X239172D01*
X248824D02*
X253904D01*
X255936D02*
X267112D01*
X276764D02*
X288956D01*
X303180D02*
X307752D01*
X324516D02*
X334168D01*
X346868D02*
X358044D01*
X369220D02*
X380904D01*
X392080D02*
X401732D01*
X418496D02*
X423576D01*
X229012Y120274D02*
X239172D01*
X248824D02*
X253904D01*
X256444D02*
X267112D01*
X276764D02*
X288956D01*
X303180D02*
X307752D01*
X324516D02*
X334168D01*
X346868D02*
X358044D01*
X369220D02*
X380904D01*
X392080D02*
X401732D01*
X418496D02*
X423576D01*
X229012Y120782D02*
X239172D01*
X248824D02*
X253904D01*
X256952D02*
X267112D01*
X276764D02*
X288956D01*
X302164D02*
X307752D01*
X324516D02*
X334168D01*
X347376D02*
X358044D01*
X369220D02*
X380904D01*
X392080D02*
X401732D01*
X418496D02*
X423576D01*
X229012Y121290D02*
X239172D01*
X248824D02*
X253904D01*
X257968D02*
X267112D01*
X276764D02*
X288956D01*
X301656D02*
X307752D01*
X324516D02*
X334168D01*
X348392D02*
X358044D01*
X368712D02*
X374300D01*
X376332D02*
X380904D01*
X392080D02*
X401732D01*
X418496D02*
X423576D01*
X234092Y121798D02*
X239172D01*
X248824D02*
X253904D01*
X259492D02*
X267112D01*
X276764D02*
X288956D01*
X301148D02*
X305720D01*
X329596D02*
X334168D01*
X349916D02*
X358044D01*
X368712D02*
X373792D01*
X376332D02*
X380904D01*
X397160D02*
X401732D01*
X418496D02*
X423576D01*
X234092Y122306D02*
X239172D01*
X248824D02*
X253904D01*
X262540D02*
X267112D01*
X276764D02*
X281336D01*
X284384D02*
X288956D01*
X301148D02*
X305212D01*
X329596D02*
X334168D01*
X352964D02*
X358044D01*
X368712D02*
X373792D01*
X376332D02*
X380904D01*
X397160D02*
X401732D01*
X411384D02*
X415956D01*
X418496D02*
X423576D01*
X234092Y122814D02*
X239172D01*
X248824D02*
X253904D01*
X262540D02*
X267112D01*
X276764D02*
X281336D01*
X283876D02*
X288956D01*
X300640D02*
X305212D01*
X307752D02*
X312324D01*
X329596D02*
X334168D01*
X352964D02*
X358044D01*
X368712D02*
X373284D01*
X376332D02*
X380904D01*
X397160D02*
X401732D01*
X411384D02*
X415956D01*
X418496D02*
X423576D01*
X234092Y123322D02*
X239172D01*
X248824D02*
X253904D01*
X262540D02*
X267112D01*
X276764D02*
X281336D01*
X283876D02*
X288956D01*
X300640D02*
X305212D01*
X307752D02*
X312324D01*
X329596D02*
X334168D01*
X352964D02*
X358044D01*
X368712D02*
X373284D01*
X376332D02*
X380904D01*
X397160D02*
X401732D01*
X411384D02*
X415956D01*
X418496D02*
X423576D01*
X234092Y123830D02*
X239172D01*
X248824D02*
X253904D01*
X262540D02*
X267112D01*
X276764D02*
X281336D01*
X283876D02*
X288956D01*
X300640D02*
X305212D01*
X307752D02*
X312324D01*
X329596D02*
X334168D01*
X352964D02*
X358044D01*
X368712D02*
X373284D01*
X376332D02*
X380904D01*
X397160D02*
X401732D01*
X411384D02*
X415956D01*
X418496D02*
X423576D01*
X234092Y124338D02*
X239172D01*
X248824D02*
X253904D01*
X262540D02*
X267112D01*
X276764D02*
X281336D01*
X283876D02*
X288956D01*
X300640D02*
X305212D01*
X307752D02*
X312324D01*
X329596D02*
X334168D01*
X352964D02*
X358044D01*
X368712D02*
X373792D01*
X376332D02*
X380904D01*
X397160D02*
X401732D01*
X411384D02*
X415956D01*
X418496D02*
X423576D01*
X234092Y124846D02*
X239172D01*
X248824D02*
X253904D01*
X262540D02*
X267112D01*
X276764D02*
X281336D01*
X283876D02*
X288956D01*
X300640D02*
X305212D01*
X307752D02*
X312324D01*
X329596D02*
X334168D01*
X352964D02*
X358044D01*
X368712D02*
X373792D01*
X376332D02*
X380904D01*
X397160D02*
X401732D01*
X411384D02*
X415956D01*
X418496D02*
X423576D01*
X234092Y125354D02*
X239172D01*
X248824D02*
X253904D01*
X262540D02*
X267112D01*
X276764D02*
X281336D01*
X283876D02*
X288956D01*
X300640D02*
X305212D01*
X307752D02*
X312324D01*
X329596D02*
X334168D01*
X352964D02*
X358044D01*
X368712D02*
X373792D01*
X376332D02*
X380904D01*
X397160D02*
X401732D01*
X411384D02*
X415956D01*
X418496D02*
X423576D01*
X228504Y125862D02*
X239172D01*
X248824D02*
X253904D01*
X262540D02*
X267112D01*
X276764D02*
X281336D01*
X283876D02*
X288956D01*
X300640D02*
X305720D01*
X307244D02*
X312324D01*
X324008D02*
X334168D01*
X352964D02*
X358044D01*
X368712D02*
X374808D01*
X375824D02*
X380904D01*
X391064D02*
X401732D01*
X411384D02*
X416464D01*
X418496D02*
X423068D01*
X228504Y126370D02*
X239172D01*
X248824D02*
X253904D01*
X262540D02*
X267112D01*
X276764D02*
X281336D01*
X283876D02*
X288956D01*
X300640D02*
X312324D01*
X324008D02*
X334168D01*
X352964D02*
X358044D01*
X369220D02*
X380904D01*
X391064D02*
X401732D01*
X411892D02*
X423068D01*
X228504Y126878D02*
X239172D01*
X248824D02*
X253904D01*
X262540D02*
X267112D01*
X276764D02*
X281336D01*
X283876D02*
X288956D01*
X301148D02*
X311816D01*
X324008D02*
X334168D01*
X352964D02*
X358044D01*
X369220D02*
X380904D01*
X391064D02*
X401732D01*
X411892D02*
X423068D01*
X228504Y127386D02*
X239172D01*
X248824D02*
X253904D01*
X262540D02*
X267112D01*
X276764D02*
X281336D01*
X283876D02*
X288956D01*
X301148D02*
X311816D01*
X324008D02*
X334168D01*
X352964D02*
X358044D01*
X369220D02*
X380904D01*
X391064D02*
X401732D01*
X412400D02*
X422560D01*
X228504Y127894D02*
X239172D01*
X248824D02*
X253904D01*
X262540D02*
X267112D01*
X276764D02*
X281336D01*
X283876D02*
X288956D01*
X301656D02*
X311308D01*
X324008D02*
X334168D01*
X352964D02*
X358044D01*
X369728D02*
X380904D01*
X391064D02*
X401732D01*
X412400D02*
X422052D01*
X228504Y128402D02*
X239172D01*
X248824D02*
X253904D01*
X262540D02*
X267112D01*
X276764D02*
X281336D01*
X283876D02*
X288956D01*
X302164D02*
X310800D01*
X324008D02*
X334168D01*
X352964D02*
X358044D01*
X370236D02*
X380904D01*
X391064D02*
X401732D01*
X412908D02*
X421544D01*
X228504Y128910D02*
X239172D01*
X248824D02*
X253904D01*
X262540D02*
X267112D01*
X276764D02*
X281336D01*
X283876D02*
X288956D01*
X302672D02*
X310292D01*
X324008D02*
X334168D01*
X352964D02*
X358044D01*
X371252D02*
X380904D01*
X391064D02*
X401732D01*
X413924D02*
X421036D01*
X228504Y129418D02*
X238664D01*
X249332D02*
X253396D01*
X262540D02*
X267112D01*
X276764D02*
X281336D01*
X284384D02*
X288956D01*
X303688D02*
X309276D01*
X324008D02*
X334168D01*
X352964D02*
X357536D01*
X373284D02*
X380904D01*
X391572D02*
X401732D01*
X414940D02*
X420020D01*
X305720Y129926D02*
X306736D01*
X416972D02*
X417988D01*
X323500Y135514D02*
X334168D01*
X323500Y136022D02*
X334168D01*
X323500Y136530D02*
X334168D01*
X323500Y137038D02*
X334168D01*
X323500Y137546D02*
X334168D01*
X323500Y138054D02*
X334168D01*
X323500Y138562D02*
X334168D01*
X324008Y139070D02*
X334168D01*
M02*
