M48
;Layer_Color=9474304
;FILE_FORMAT=4:4
METRIC,LZ
;TYPE=PLATED
T1F00S00C0.3000
T2F00S00C1.0000
T3F00S00C1.4000
;TYPE=NON_PLATED
T4F00S00C3.6000
%
T01
X0029375Y0003025
X0029375Y00042
X0030625
X0030625Y0003025
X0031875
X0031875Y00042
X0032475Y001135
X00302813Y0011325
X00280875Y001135
X00258938
X00237Y0011325
Y0013785
X00258938Y001381
X00280875
X00302813
X0032475Y00138
Y001627
X00302813
X00280875
X00258938
X00237Y0016245
Y0018705
X00258938Y001873
X00280875
X00302813Y0018705
X0032475Y001873
Y002119
X00302813Y0021165
X00280875Y002119
X00258938
X00237Y0021165
Y0023625
X00258938Y002365
X00280875
X00302813Y0023625
X0032475Y002365
T02
X00067252Y00128501
X00117252
Y00166601
Y00204701
Y00242801
X00067252
Y00204701
Y00166601
T03
X004545Y0007495
Y0012495
T04
X0008925Y00059751
X004545Y002155
M30
