%FSLAX44Y44*%
%MOMM*%
G71*
G01*
G75*
%ADD10R,1.7000X1.2500*%
%ADD11R,10.0000X13.5000*%
%ADD12R,1.8000X4.0000*%
G04:AMPARAMS|DCode=13|XSize=0.7mm|YSize=1.1mm|CornerRadius=0mm|HoleSize=0mm|Usage=FLASHONLY|Rotation=270.000|XOffset=0mm|YOffset=0mm|HoleType=Round|Shape=Octagon|*
%AMOCTAGOND13*
4,1,8,0.5500,0.1750,0.5500,-0.1750,0.3750,-0.3500,-0.3750,-0.3500,-0.5500,-0.1750,-0.5500,0.1750,-0.3750,0.3500,0.3750,0.3500,0.5500,0.1750,0.0*
%
%ADD13OCTAGOND13*%

%ADD14R,1.1000X0.7000*%
%ADD15R,0.9500X1.0000*%
%ADD16R,4.0000X2.5000*%
%ADD17R,1.6000X1.8000*%
%ADD18R,1.4500X2.8000*%
%ADD19R,1.1000X0.9500*%
%ADD20C,0.5000*%
%ADD21C,1.0000*%
%ADD22C,0.6800*%
%ADD23C,0.3000*%
%ADD24R,1.6000X1.6000*%
%ADD25C,3.6000*%
%ADD26O,3.5000X3.0000*%
%ADD27R,3.5000X3.0000*%
%ADD28C,0.8000*%
%ADD29C,0.2000*%
%ADD30C,0.0254*%
D29*
X124250Y59751D02*
G03*
X124250Y59751I-35000J0D01*
G01*
X489500Y215500D02*
G03*
X489500Y215500I-35000J0D01*
G01*
X504300Y138450D02*
G03*
X504300Y113050I0J-12700D01*
G01*
X504300Y87650D02*
G03*
X504300Y62250I0J-12700D01*
G01*
X22252Y138801D02*
Y176901D01*
X147252Y138801D02*
Y176901D01*
X22252D02*
X147252D01*
X22252Y138801D02*
X147252D01*
X32252D02*
Y176901D01*
X22252Y100701D02*
Y138801D01*
X147252Y100701D02*
Y138801D01*
X22252D02*
X147252D01*
X22252Y100701D02*
X147252D01*
X32252D02*
Y138801D01*
X218250Y68950D02*
Y76950D01*
X203250Y68950D02*
Y76950D01*
X200500Y95950D02*
X221000D01*
X200500Y49950D02*
X221000D01*
X22252Y215001D02*
Y253101D01*
X147252Y215001D02*
Y253101D01*
X22252D02*
X147252D01*
X22252Y215001D02*
X147252D01*
X32252D02*
Y253101D01*
X334750Y49950D02*
Y246950D01*
X226750D02*
X334750D01*
X226750Y49950D02*
X334750D01*
X226750D02*
Y246950D01*
X181000Y98230D02*
X221000Y98230D01*
Y129980D01*
X181000Y98230D02*
Y126110D01*
X184870Y129980D01*
X221000D01*
X165000Y98230D02*
X178500D01*
X165000Y129230D02*
X178500Y129230D01*
X337500Y152700D02*
X401500D01*
X337500Y49950D02*
X401500D01*
X337500D02*
Y152700D01*
X401500Y49950D02*
Y152700D01*
X369500Y106450D02*
X369500Y119450D01*
X363500Y96450D02*
X374500D01*
X369500Y82450D02*
Y96450D01*
Y105450D02*
X374500Y96450D01*
X363500D02*
X368500Y105450D01*
X363500D02*
X374500D01*
X404500Y49950D02*
X504500D01*
X404500D02*
Y149950D01*
X477200Y49950D02*
Y149950D01*
X504500Y49950D02*
Y149950D01*
X404500D02*
X504500D01*
X22252Y176901D02*
Y215001D01*
X147252Y176901D02*
Y215001D01*
X22252D02*
X147252D01*
X22252Y176901D02*
X147252D01*
X32252D02*
Y215001D01*
X184750Y80950D02*
X198250D01*
X184750Y49950D02*
X198250Y49950D01*
X191250Y190000D02*
Y201000D01*
X182250D02*
X191250Y196000D01*
X182250Y190000D02*
X191250Y195000D01*
X180250Y195500D02*
X182250Y195500D01*
Y190000D02*
Y201000D01*
X192250Y195500D02*
X194250D01*
X153500Y181000D02*
X221000D01*
X153500Y211000D02*
X221000D01*
X153500Y181000D02*
Y211000D01*
X221000Y181000D02*
Y211000D01*
X191750Y176250D02*
X198750Y176250D01*
X191750Y150250D02*
X198750Y150250D01*
X169500Y147500D02*
Y179000D01*
X221000Y147500D02*
Y179000D01*
X190000Y132000D02*
Y145500D01*
X221000Y132000D02*
Y145500D01*
X3500Y176750D02*
X22500D01*
X78750Y153997D02*
X86081Y143000D01*
Y153997D02*
X78750Y143000D01*
X89747Y153997D02*
X97078D01*
X93412D01*
Y143000D01*
X100743Y152164D02*
X102576Y153997D01*
X106241D01*
X108074Y152164D01*
Y150331D01*
X106241Y148498D01*
X104409D01*
X106241D01*
X108074Y146666D01*
Y144833D01*
X106241Y143000D01*
X102576D01*
X100743Y144833D01*
X78750Y116497D02*
X86081Y105500D01*
Y116497D02*
X78750Y105500D01*
X89747Y116497D02*
X97078D01*
X93412D01*
Y105500D01*
X106241D02*
Y116497D01*
X100743Y110998D01*
X108074D01*
X78750Y230497D02*
X86081Y219500D01*
Y230497D02*
X78750Y219500D01*
X89747Y230497D02*
X97078D01*
X93412D01*
Y219500D01*
X100743D02*
X104409D01*
X102576D01*
Y230497D01*
X100743Y228664D01*
X426996Y116250D02*
X416000Y108919D01*
X426996D02*
X416000Y116250D01*
X426996Y105254D02*
Y97923D01*
Y101588D01*
X416000D01*
X426996Y86926D02*
Y94257D01*
X421498D01*
X423331Y90592D01*
Y88759D01*
X421498Y86926D01*
X417833D01*
X416000Y88759D01*
Y92424D01*
X417833Y94257D01*
X78750Y192497D02*
X86081Y181500D01*
Y192497D02*
X78750Y181500D01*
X89747Y192497D02*
X97078D01*
X93412D01*
Y181500D01*
X108074D02*
X100743D01*
X108074Y188831D01*
Y190664D01*
X106241Y192497D01*
X102576D01*
X100743Y190664D01*
X268250Y44997D02*
Y37666D01*
X271916Y34000D01*
X275581Y37666D01*
Y44997D01*
X279247D02*
X286578D01*
X282912D01*
Y34000D01*
X290243D02*
X293909D01*
X292076D01*
Y44997D01*
X290243Y43164D01*
X355250Y44997D02*
Y37666D01*
X358916Y34000D01*
X362581Y37666D01*
Y44997D01*
X366247D02*
Y34000D01*
X371745D01*
X373577Y35833D01*
Y43164D01*
X371745Y44997D01*
X366247D01*
X384574Y34000D02*
X377243D01*
X384574Y41331D01*
Y43164D01*
X382741Y44997D01*
X379076D01*
X377243Y43164D01*
X195000Y224747D02*
Y217416D01*
X198665Y213750D01*
X202331Y217416D01*
Y224747D01*
X205996D02*
Y213750D01*
X211495D01*
X213327Y215583D01*
Y222914D01*
X211495Y224747D01*
X205996D01*
X216993Y213750D02*
X220658D01*
X218826D01*
Y224747D01*
X216993Y222914D01*
X203250Y34000D02*
Y44997D01*
X208748D01*
X210581Y43164D01*
Y39498D01*
X208748Y37666D01*
X203250D01*
X206915D02*
X210581Y34000D01*
X214246Y43164D02*
X216079Y44997D01*
X219745D01*
X221577Y43164D01*
Y41331D01*
X219745Y39498D01*
X217912D01*
X219745D01*
X221577Y37666D01*
Y35833D01*
X219745Y34000D01*
X216079D01*
X214246Y35833D01*
X179250Y34000D02*
Y44997D01*
X184748D01*
X186581Y43164D01*
Y39498D01*
X184748Y37666D01*
X179250D01*
X182915D02*
X186581Y34000D01*
X197577D02*
X190246D01*
X197577Y41331D01*
Y43164D01*
X195745Y44997D01*
X192079D01*
X190246Y43164D01*
X151750Y83750D02*
Y94747D01*
X157248D01*
X159081Y92914D01*
Y89248D01*
X157248Y87416D01*
X151750D01*
X155415D02*
X159081Y83750D01*
X162747D02*
X166412D01*
X164579D01*
Y94747D01*
X162747Y92914D01*
X173000Y94997D02*
Y84000D01*
X178498D01*
X180331Y85833D01*
Y93164D01*
X178498Y94997D01*
X173000D01*
X183997D02*
Y84000D01*
X189495D01*
X191327Y85833D01*
Y93164D01*
X189495Y94997D01*
X183997D01*
X194993Y84000D02*
X198658D01*
X196826D01*
Y94997D01*
X194993Y93164D01*
X175831Y142914D02*
X173998Y144747D01*
X170333D01*
X168500Y142914D01*
Y135583D01*
X170333Y133750D01*
X173998D01*
X175831Y135583D01*
X186827Y133750D02*
X179496D01*
X186827Y141081D01*
Y142914D01*
X184995Y144747D01*
X181329D01*
X179496Y142914D01*
X158831Y167164D02*
X156998Y168997D01*
X153333D01*
X151500Y167164D01*
Y159833D01*
X153333Y158000D01*
X156998D01*
X158831Y159833D01*
X162496Y158000D02*
X166162D01*
X164329D01*
Y168997D01*
X162496Y167164D01*
X16996Y155000D02*
X8999D01*
X5000Y151002D01*
X8999Y147003D01*
X16996D01*
X14997Y135007D02*
X16996Y137006D01*
Y141005D01*
X14997Y143004D01*
X6999D01*
X5000Y141005D01*
Y137006D01*
X6999Y135007D01*
X14997Y123011D02*
X16996Y125010D01*
Y129009D01*
X14997Y131008D01*
X6999D01*
X5000Y129009D01*
Y125010D01*
X6999Y123011D01*
X5000Y230000D02*
X16996D01*
Y224002D01*
X14997Y222003D01*
X10998D01*
X8999Y224002D01*
Y230000D01*
X16996Y218004D02*
X5000D01*
X8999Y214005D01*
X5000Y210007D01*
X16996D01*
X5000Y206008D02*
X16996D01*
X12997Y202009D01*
X16996Y198011D01*
X5000D01*
X477497Y43997D02*
X475498Y45996D01*
X471499D01*
X469500Y43997D01*
Y36000D01*
X471499Y34000D01*
X475498D01*
X477497Y36000D01*
Y39998D01*
X473499D01*
X481496Y34000D02*
Y45996D01*
X489494Y34000D01*
Y45996D01*
X493492D02*
Y34000D01*
X499490D01*
X501490Y36000D01*
Y43997D01*
X499490Y45996D01*
X493492D01*
X457504Y165996D02*
Y154000D01*
X465501D01*
X475498Y165996D02*
X471499D01*
X469500Y163997D01*
Y155999D01*
X471499Y154000D01*
X475498D01*
X477497Y155999D01*
Y163997D01*
X475498Y165996D01*
X481496Y154000D02*
Y161998D01*
X485495Y165996D01*
X489494Y161998D01*
Y154000D01*
Y159998D01*
X481496D01*
X493492Y165996D02*
Y154000D01*
X499490D01*
X501490Y155999D01*
Y163997D01*
X499490Y165996D01*
X493492D01*
X239606Y62329D02*
X239082Y63376D01*
X238034Y64424D01*
X236987Y64948D01*
X234892D01*
X233845Y64424D01*
X232798Y63376D01*
X232274Y62329D01*
X231750Y60758D01*
Y58140D01*
X232274Y56568D01*
X232798Y55521D01*
X233845Y54474D01*
X234892Y53950D01*
X236987D01*
X238034Y54474D01*
X239082Y55521D01*
X239606Y56568D01*
Y58140D01*
X236987D02*
X239606D01*
X329082Y63376D02*
X328034Y64424D01*
X326463Y64948D01*
X324369D01*
X322797Y64424D01*
X321750Y63376D01*
Y62329D01*
X322274Y61282D01*
X322797Y60758D01*
X323845Y60234D01*
X326987Y59187D01*
X328034Y58663D01*
X328558Y58140D01*
X329082Y57092D01*
Y55521D01*
X328034Y54474D01*
X326463Y53950D01*
X324369D01*
X322797Y54474D01*
X321750Y55521D01*
X277000Y103697D02*
Y92700D01*
Y103697D02*
X280666D01*
X282237Y103174D01*
X283284Y102126D01*
X283808Y101079D01*
X284332Y99508D01*
Y96889D01*
X283808Y95318D01*
X283284Y94271D01*
X282237Y93223D01*
X280666Y92700D01*
X277000D01*
X10998Y245000D02*
Y237003D01*
X14997Y241001D02*
X6999D01*
X10998Y170000D02*
Y162003D01*
X14997Y166001D02*
X6999D01*
X10998Y117500D02*
Y109503D01*
Y192500D02*
Y184503D01*
D30*
X406234Y160224D02*
X408774D01*
X376516D02*
X379310D01*
X369150D02*
X371690D01*
X351624D02*
X354164D01*
X412330Y160478D02*
X417664D01*
X405472D02*
X409282D01*
X400900D02*
X403440D01*
X396328D02*
X398614D01*
X390740D02*
X393026D01*
X386676D02*
X389470D01*
X382866D02*
X385152D01*
X376008D02*
X380072D01*
X368642D02*
X372452D01*
X358990D02*
X361276D01*
X351116D02*
X354926D01*
X345782D02*
X348068D01*
X341464D02*
X344004D01*
X412330Y160732D02*
X417664D01*
X405218D02*
X409790D01*
X400900D02*
X403186D01*
X396328D02*
X398614D01*
X390740D02*
X393026D01*
X386676D02*
X389216D01*
X382866D02*
X385152D01*
X375754D02*
X380326D01*
X368388D02*
X372706D01*
X358990D02*
X361276D01*
X350608D02*
X355180D01*
X345782D02*
X348068D01*
X341464D02*
X344004D01*
X412330Y160986D02*
X417664D01*
X404964D02*
X410044D01*
X400900D02*
X403186D01*
X396328D02*
X398614D01*
X390740D02*
X393026D01*
X386676D02*
X389216D01*
X382866D02*
X385152D01*
X375500D02*
X380580D01*
X368134D02*
X372960D01*
X358990D02*
X361276D01*
X350354D02*
X355434D01*
X345782D02*
X348068D01*
X341464D02*
X344004D01*
X412330Y161240D02*
X417664D01*
X404710D02*
X410044D01*
X400900D02*
X403186D01*
X396328D02*
X398868D01*
X390740D02*
X393026D01*
X386676D02*
X389216D01*
X382866D02*
X385152D01*
X375246D02*
X380580D01*
X367880D02*
X372960D01*
X358990D02*
X361276D01*
X350100D02*
X355688D01*
X345782D02*
X348068D01*
X341464D02*
X344004D01*
X412330Y161494D02*
X417664D01*
X404456D02*
X410298D01*
X400900D02*
X403186D01*
X396582D02*
X398868D01*
X390740D02*
X393026D01*
X386676D02*
X389216D01*
X382866D02*
X385152D01*
X375246D02*
X380834D01*
X367880D02*
X373214D01*
X358990D02*
X361276D01*
X350100D02*
X355688D01*
X345782D02*
X348068D01*
X341464D02*
X344004D01*
X412330Y161748D02*
X417664D01*
X404456D02*
X410552D01*
X400900D02*
X403186D01*
X396582D02*
X398868D01*
X390740D02*
X393026D01*
X386676D02*
X389216D01*
X382866D02*
X385152D01*
X374992D02*
X380834D01*
X367626D02*
X373214D01*
X358990D02*
X361276D01*
X349846D02*
X355942D01*
X345782D02*
X348068D01*
X341464D02*
X344004D01*
X412330Y162002D02*
X417664D01*
X407758D02*
X410552D01*
X404456D02*
X407250D01*
X400646D02*
X402932D01*
X396582D02*
X398868D01*
X390740D02*
X393026D01*
X386676D02*
X388962D01*
X382866D02*
X385152D01*
X378294D02*
X381088D01*
X374992D02*
X377786D01*
X370928D02*
X373468D01*
X367626D02*
X370166D01*
X358990D02*
X361276D01*
X353148D02*
X355942D01*
X349846D02*
X352640D01*
X345782D02*
X348068D01*
X341464D02*
X344004D01*
X412330Y162256D02*
X417664D01*
X408266D02*
X410552D01*
X404202D02*
X406742D01*
X396582D02*
X402932D01*
X390740D02*
X393026D01*
X386676D02*
X388962D01*
X382866D02*
X385152D01*
X378548D02*
X381088D01*
X374992D02*
X377532D01*
X371182D02*
X373468D01*
X367626D02*
X369912D01*
X358990D02*
X361276D01*
X353656D02*
X356196D01*
X349846D02*
X352132D01*
X345782D02*
X348068D01*
X341464D02*
X344004D01*
X412330Y162510D02*
X414616D01*
X408266D02*
X410552D01*
X404202D02*
X406742D01*
X396582D02*
X402932D01*
X390740D02*
X393026D01*
X386676D02*
X388962D01*
X382866D02*
X385152D01*
X378802D02*
X381088D01*
X374992D02*
X377278D01*
X371182D02*
X373468D01*
X367626D02*
X369658D01*
X358990D02*
X361276D01*
X353656D02*
X356196D01*
X349592D02*
X352132D01*
X345782D02*
X348068D01*
X341464D02*
X344004D01*
X412330Y162764D02*
X414616D01*
X408266D02*
X410552D01*
X404202D02*
X406488D01*
X396836D02*
X402932D01*
X390740D02*
X393026D01*
X386676D02*
X388962D01*
X382866D02*
X385152D01*
X378802D02*
X381088D01*
X374992D02*
X377278D01*
X371436D02*
X373468D01*
X367372D02*
X369658D01*
X358990D02*
X361276D01*
X353656D02*
X356196D01*
X349592D02*
X352132D01*
X345782D02*
X348068D01*
X341464D02*
X344004D01*
X412330Y163018D02*
X414616D01*
X408266D02*
X410806D01*
X404202D02*
X406488D01*
X396836D02*
X402678D01*
X390740D02*
X393026D01*
X386676D02*
X388962D01*
X382866D02*
X385152D01*
X378802D02*
X381088D01*
X374992D02*
X377278D01*
X371182D02*
X373468D01*
X367372D02*
X369658D01*
X358990D02*
X361276D01*
X353910D02*
X356196D01*
X349592D02*
X352132D01*
X345782D02*
X348068D01*
X341464D02*
X344004D01*
X412330Y163272D02*
X414616D01*
X408520D02*
X410806D01*
X404202D02*
X406488D01*
X396836D02*
X402678D01*
X390740D02*
X393026D01*
X386676D02*
X388962D01*
X382866D02*
X385152D01*
X378802D02*
X381088D01*
X374738D02*
X377278D01*
X371182D02*
X373468D01*
X367372D02*
X369658D01*
X358990D02*
X361276D01*
X353910D02*
X356196D01*
X349592D02*
X351878D01*
X345782D02*
X348068D01*
X341464D02*
X344004D01*
X412330Y163526D02*
X414616D01*
X408520D02*
X410806D01*
X404202D02*
X406488D01*
X396836D02*
X402678D01*
X390740D02*
X393026D01*
X386676D02*
X388962D01*
X382866D02*
X385152D01*
X378802D02*
X381088D01*
X374738D02*
X377278D01*
X371182D02*
X373468D01*
X367372D02*
X369658D01*
X358990D02*
X361276D01*
X353910D02*
X356196D01*
X349592D02*
X351878D01*
X345782D02*
X348068D01*
X341464D02*
X344004D01*
X412330Y163780D02*
X414616D01*
X408520D02*
X410806D01*
X404202D02*
X406488D01*
X397090D02*
X402678D01*
X390740D02*
X393026D01*
X386676D02*
X388962D01*
X382866D02*
X385152D01*
X378802D02*
X381088D01*
X374738D02*
X377278D01*
X370928D02*
X373468D01*
X358990D02*
X361276D01*
X353910D02*
X356196D01*
X349592D02*
X351878D01*
X345782D02*
X348068D01*
X341464D02*
X344004D01*
X412330Y164034D02*
X414616D01*
X408520D02*
X410806D01*
X404202D02*
X406488D01*
X400392D02*
X402678D01*
X397090D02*
X399376D01*
X390740D02*
X393026D01*
X386422D02*
X388962D01*
X382866D02*
X385152D01*
X378802D02*
X381088D01*
X374738D02*
X377278D01*
X370674D02*
X373468D01*
X358990D02*
X361276D01*
X353910D02*
X356196D01*
X349592D02*
X351878D01*
X345782D02*
X348068D01*
X341464D02*
X344004D01*
X412330Y164288D02*
X414616D01*
X404202D02*
X406488D01*
X400392D02*
X402424D01*
X397090D02*
X399122D01*
X390740D02*
X393026D01*
X385660D02*
X388708D01*
X382866D02*
X385152D01*
X378802D02*
X381088D01*
X374738D02*
X377278D01*
X370166D02*
X373468D01*
X358990D02*
X361276D01*
X353910D02*
X356196D01*
X349592D02*
X351878D01*
X345782D02*
X348068D01*
X341464D02*
X344004D01*
X412330Y164542D02*
X417410D01*
X404202D02*
X406488D01*
X400392D02*
X402424D01*
X397090D02*
X399122D01*
X390740D02*
X395820D01*
X382866D02*
X388708D01*
X378802D02*
X381088D01*
X374738D02*
X377278D01*
X369912D02*
X373214D01*
X358990D02*
X361276D01*
X353910D02*
X356196D01*
X349592D02*
X351878D01*
X341464D02*
X348068D01*
X412330Y164796D02*
X417410D01*
X404202D02*
X406488D01*
X400392D02*
X402424D01*
X397090D02*
X399376D01*
X390740D02*
X395820D01*
X382866D02*
X388454D01*
X378802D02*
X381088D01*
X374738D02*
X377278D01*
X369404D02*
X373214D01*
X358990D02*
X361276D01*
X353910D02*
X356196D01*
X349592D02*
X351878D01*
X341464D02*
X348068D01*
X412330Y165050D02*
X417410D01*
X404202D02*
X406488D01*
X400392D02*
X402424D01*
X397344D02*
X399376D01*
X390740D02*
X395820D01*
X382866D02*
X388200D01*
X378802D02*
X381088D01*
X374738D02*
X377278D01*
X369150D02*
X372960D01*
X358990D02*
X361276D01*
X353910D02*
X356196D01*
X349592D02*
X351878D01*
X341464D02*
X348068D01*
X412330Y165304D02*
X417410D01*
X404202D02*
X406488D01*
X400392D02*
X402170D01*
X397344D02*
X399376D01*
X390740D02*
X395820D01*
X382866D02*
X387946D01*
X378802D02*
X381088D01*
X374738D02*
X377278D01*
X368896D02*
X372706D01*
X358990D02*
X361276D01*
X353910D02*
X356196D01*
X349592D02*
X351878D01*
X341464D02*
X348068D01*
X412330Y165558D02*
X417410D01*
X404202D02*
X406488D01*
X400138D02*
X402170D01*
X397344D02*
X399376D01*
X390740D02*
X395820D01*
X382866D02*
X388200D01*
X378802D02*
X381088D01*
X374738D02*
X377278D01*
X368388D02*
X372452D01*
X358990D02*
X361276D01*
X353910D02*
X356196D01*
X349592D02*
X351878D01*
X341464D02*
X348068D01*
X412330Y165812D02*
X417410D01*
X404202D02*
X406488D01*
X400138D02*
X402170D01*
X397344D02*
X399376D01*
X390740D02*
X395820D01*
X382866D02*
X388454D01*
X378802D02*
X381088D01*
X374738D02*
X377278D01*
X368134D02*
X372198D01*
X358990D02*
X361276D01*
X353910D02*
X356196D01*
X349592D02*
X351878D01*
X341464D02*
X348068D01*
X412330Y166066D02*
X417410D01*
X404202D02*
X406488D01*
X400138D02*
X402170D01*
X397598D02*
X399376D01*
X390740D02*
X395820D01*
X382866D02*
X388708D01*
X378802D02*
X381088D01*
X374738D02*
X377278D01*
X368134D02*
X371944D01*
X358990D02*
X361276D01*
X353910D02*
X356196D01*
X349592D02*
X351878D01*
X341464D02*
X348068D01*
X412330Y166320D02*
X417410D01*
X404202D02*
X406488D01*
X400138D02*
X402170D01*
X397598D02*
X399376D01*
X390740D02*
X395820D01*
X386168D02*
X388962D01*
X382866D02*
X385152D01*
X378802D02*
X381088D01*
X374738D02*
X377278D01*
X367880D02*
X371436D01*
X358990D02*
X361276D01*
X353910D02*
X356196D01*
X349592D02*
X351878D01*
X341464D02*
X348068D01*
X412330Y166574D02*
X414616D01*
X404202D02*
X406488D01*
X400138D02*
X401916D01*
X397598D02*
X399630D01*
X390740D02*
X393026D01*
X386676D02*
X388962D01*
X382866D02*
X385152D01*
X378802D02*
X381088D01*
X374738D02*
X377278D01*
X367880D02*
X370928D01*
X358990D02*
X361276D01*
X353910D02*
X356196D01*
X349592D02*
X351878D01*
X345782D02*
X348068D01*
X341464D02*
X344004D01*
X412330Y166828D02*
X414616D01*
X408520D02*
X410552D01*
X404202D02*
X406488D01*
X400138D02*
X401916D01*
X397598D02*
X399630D01*
X390740D02*
X393026D01*
X386676D02*
X388962D01*
X382866D02*
X385152D01*
X378802D02*
X381088D01*
X374738D02*
X377278D01*
X367626D02*
X370674D01*
X358990D02*
X361276D01*
X353910D02*
X356196D01*
X349592D02*
X351878D01*
X345782D02*
X348068D01*
X341464D02*
X344004D01*
X412330Y167082D02*
X414616D01*
X408520D02*
X410806D01*
X404202D02*
X406488D01*
X399884D02*
X401916D01*
X397598D02*
X399630D01*
X390740D02*
X393026D01*
X386676D02*
X389216D01*
X382866D02*
X385152D01*
X378802D02*
X381088D01*
X374738D02*
X377278D01*
X367626D02*
X370420D01*
X358990D02*
X361276D01*
X353910D02*
X356196D01*
X349592D02*
X351878D01*
X345782D02*
X348068D01*
X341464D02*
X344004D01*
X412330Y167336D02*
X414616D01*
X408520D02*
X410806D01*
X404202D02*
X406488D01*
X399884D02*
X401916D01*
X397852D02*
X399630D01*
X390740D02*
X393026D01*
X386676D02*
X389216D01*
X382866D02*
X385152D01*
X378802D02*
X381088D01*
X374738D02*
X377278D01*
X367626D02*
X370166D01*
X358990D02*
X361276D01*
X353910D02*
X356196D01*
X349592D02*
X351878D01*
X345782D02*
X348068D01*
X341464D02*
X344004D01*
X412330Y167590D02*
X414616D01*
X408266D02*
X410806D01*
X404202D02*
X406488D01*
X399884D02*
X401916D01*
X397852D02*
X399630D01*
X390740D02*
X393026D01*
X386676D02*
X389216D01*
X382866D02*
X385152D01*
X378802D02*
X381088D01*
X374738D02*
X377278D01*
X371436D02*
X373468D01*
X367626D02*
X369912D01*
X358990D02*
X361276D01*
X353910D02*
X356196D01*
X349592D02*
X351878D01*
X345782D02*
X348068D01*
X341464D02*
X344004D01*
X412330Y167844D02*
X414616D01*
X408266D02*
X410552D01*
X404202D02*
X406488D01*
X399884D02*
X401662D01*
X397852D02*
X399630D01*
X390740D02*
X393026D01*
X386676D02*
X389216D01*
X382866D02*
X385152D01*
X378802D02*
X381088D01*
X374738D02*
X377278D01*
X371436D02*
X373468D01*
X367626D02*
X369912D01*
X358990D02*
X361276D01*
X353656D02*
X356196D01*
X349592D02*
X352132D01*
X345782D02*
X348068D01*
X341464D02*
X344004D01*
X412330Y168098D02*
X414616D01*
X408266D02*
X410552D01*
X404202D02*
X406742D01*
X397852D02*
X401662D01*
X390740D02*
X393026D01*
X386676D02*
X389216D01*
X382866D02*
X385152D01*
X378802D02*
X381088D01*
X374738D02*
X377278D01*
X371182D02*
X373468D01*
X367626D02*
X369912D01*
X358990D02*
X361276D01*
X353656D02*
X356196D01*
X349592D02*
X352132D01*
X345782D02*
X348068D01*
X341464D02*
X344004D01*
X412330Y168352D02*
X414616D01*
X408266D02*
X410552D01*
X404202D02*
X406742D01*
X397852D02*
X401662D01*
X390740D02*
X393026D01*
X386422D02*
X388962D01*
X382866D02*
X385152D01*
X378802D02*
X381088D01*
X374738D02*
X377278D01*
X371182D02*
X373468D01*
X367626D02*
X369912D01*
X358990D02*
X361276D01*
X353656D02*
X355942D01*
X349846D02*
X352132D01*
X345782D02*
X348068D01*
X341464D02*
X344004D01*
X412330Y168606D02*
X417664D01*
X407758D02*
X410552D01*
X404456D02*
X406996D01*
X398106D02*
X401662D01*
X390740D02*
X396074D01*
X382866D02*
X388962D01*
X378802D02*
X381088D01*
X374738D02*
X377278D01*
X371182D02*
X373468D01*
X367626D02*
X370166D01*
X356958D02*
X363308D01*
X353148D02*
X355942D01*
X349846D02*
X352640D01*
X345782D02*
X348068D01*
X341464D02*
X344004D01*
X412330Y168860D02*
X417664D01*
X404456D02*
X410298D01*
X398106D02*
X401408D01*
X390740D02*
X396074D01*
X382866D02*
X388962D01*
X378802D02*
X381088D01*
X374738D02*
X377278D01*
X367880D02*
X373214D01*
X356958D02*
X363308D01*
X349846D02*
X355942D01*
X345782D02*
X348068D01*
X341464D02*
X344004D01*
X412330Y169114D02*
X417664D01*
X404456D02*
X410298D01*
X398106D02*
X401408D01*
X390740D02*
X396074D01*
X382866D02*
X388962D01*
X378802D02*
X381088D01*
X374738D02*
X377278D01*
X367880D02*
X373214D01*
X356958D02*
X363308D01*
X350100D02*
X355688D01*
X345782D02*
X348068D01*
X341464D02*
X344004D01*
X412330Y169368D02*
X417664D01*
X404710D02*
X410044D01*
X398106D02*
X401408D01*
X390740D02*
X396074D01*
X382866D02*
X388708D01*
X378802D02*
X381088D01*
X374738D02*
X377278D01*
X368134D02*
X373214D01*
X356958D02*
X363308D01*
X350100D02*
X355688D01*
X345782D02*
X348068D01*
X341464D02*
X344004D01*
X412330Y169622D02*
X417664D01*
X404964D02*
X410044D01*
X398360D02*
X401408D01*
X390740D02*
X396074D01*
X382866D02*
X388454D01*
X378802D02*
X381088D01*
X374738D02*
X377278D01*
X368134D02*
X372960D01*
X356958D02*
X363308D01*
X350354D02*
X355434D01*
X345782D02*
X348068D01*
X341464D02*
X344004D01*
X412330Y169876D02*
X417664D01*
X405218D02*
X409790D01*
X398360D02*
X401408D01*
X390740D02*
X396074D01*
X382866D02*
X388200D01*
X378802D02*
X381088D01*
X374738D02*
X377278D01*
X368388D02*
X372706D01*
X356958D02*
X363308D01*
X350608D02*
X355180D01*
X345782D02*
X348068D01*
X341464D02*
X344004D01*
X412330Y170130D02*
X417664D01*
X405472D02*
X409282D01*
X398360D02*
X401154D01*
X390740D02*
X396074D01*
X382866D02*
X387692D01*
X378802D02*
X381088D01*
X374738D02*
X377278D01*
X368642D02*
X372452D01*
X356958D02*
X363308D01*
X350862D02*
X354926D01*
X345782D02*
X348068D01*
X341464D02*
X344004D01*
X405980Y170384D02*
X408774D01*
X369150D02*
X371690D01*
X351624D02*
X354164D01*
X347560Y177242D02*
X411822D01*
X346544Y177496D02*
X412584D01*
X346036Y177750D02*
X413346D01*
X345782Y178004D02*
X413600D01*
X345274Y178258D02*
X413854D01*
X345020Y178512D02*
X414362D01*
X344766Y178766D02*
X414616D01*
X344512Y179020D02*
X414616D01*
X344512Y179274D02*
X414870D01*
X344258Y179528D02*
X415124D01*
X344258Y179782D02*
X415124D01*
X344004Y180036D02*
X415378D01*
X344004Y180290D02*
X415378D01*
X411314Y180544D02*
X415378D01*
X343750D02*
X347814D01*
X411822Y180798D02*
X415632D01*
X343750D02*
X347560D01*
X412076Y181052D02*
X415632D01*
X343750D02*
X347306D01*
X412330Y181306D02*
X415632D01*
X343750D02*
X347052D01*
X412330Y181560D02*
X415632D01*
X343750D02*
X347052D01*
X412330Y181814D02*
X415632D01*
X343496D02*
X346798D01*
X412330Y182068D02*
X415632D01*
X343750D02*
X347052D01*
X412330Y182322D02*
X415632D01*
X343750D02*
X347052D01*
X412076Y182576D02*
X415632D01*
X343750D02*
X347052D01*
X412076Y182830D02*
X415632D01*
X343750D02*
X347306D01*
X411822Y183084D02*
X415632D01*
X343750D02*
X347306D01*
X411822Y183338D02*
X415378D01*
X343750D02*
X347560D01*
X411568Y183592D02*
X415378D01*
X363562D02*
X395566D01*
X344004D02*
X347814D01*
X411568Y183846D02*
X415124D01*
X363562D02*
X395566D01*
X344004D02*
X347814D01*
X411314Y184100D02*
X415124D01*
X363562D02*
X395566D01*
X344258D02*
X348068D01*
X411060Y184354D02*
X414870D01*
X363562D02*
X395566D01*
X344258D02*
X348068D01*
X411060Y184608D02*
X414870D01*
X363562D02*
X395566D01*
X344512D02*
X348322D01*
X410806Y184862D02*
X414616D01*
X363562D02*
X395566D01*
X344512D02*
X348576D01*
X410806Y185116D02*
X414616D01*
X363562D02*
X395566D01*
X344766D02*
X348576D01*
X410552Y185370D02*
X414362D01*
X363562D02*
X395566D01*
X345020D02*
X348830D01*
X410552Y185624D02*
X414362D01*
X363562D02*
X395566D01*
X345020D02*
X348830D01*
X410298Y185878D02*
X414108D01*
X363562D02*
X395566D01*
X345274D02*
X349084D01*
X410044Y186132D02*
X413854D01*
X363562D02*
X395566D01*
X345274D02*
X349084D01*
X410044Y186386D02*
X413854D01*
X363562D02*
X395566D01*
X345528D02*
X349338D01*
X409790Y186640D02*
X413600D01*
X363562D02*
X395566D01*
X345528D02*
X349592D01*
X409790Y186894D02*
X413600D01*
X364832D02*
X395566D01*
X363562D02*
X364324D01*
X345782D02*
X349592D01*
X409536Y187148D02*
X413346D01*
X346036D02*
X349846D01*
X409536Y187402D02*
X413346D01*
X346036D02*
X349846D01*
X409282Y187656D02*
X413092D01*
X346290D02*
X350100D01*
X409028Y187910D02*
X412838D01*
X346290D02*
X350100D01*
X409028Y188164D02*
X412838D01*
X346544D02*
X350354D01*
X408774Y188418D02*
X412584D01*
X346544D02*
X350354D01*
X408774Y188672D02*
X412584D01*
X346798D02*
X350608D01*
X408520Y188926D02*
X412330D01*
X388454D02*
X388708D01*
X347052D02*
X350862D01*
X408266Y189180D02*
X412076D01*
X388200D02*
X388962D01*
X380072D02*
X380580D01*
X371690D02*
X372198D01*
X347052D02*
X350862D01*
X408266Y189434D02*
X412076D01*
X387946D02*
X389216D01*
X379818D02*
X380834D01*
X371436D02*
X372452D01*
X347306D02*
X351116D01*
X408012Y189688D02*
X411822D01*
X387692D02*
X389216D01*
X379564D02*
X381088D01*
X371182D02*
X372706D01*
X347306D02*
X351116D01*
X408012Y189942D02*
X411822D01*
X387438D02*
X389470D01*
X379310D02*
X381088D01*
X370928D02*
X372960D01*
X347560D02*
X351370D01*
X407758Y190196D02*
X411568D01*
X387184D02*
X389724D01*
X379056D02*
X381342D01*
X370674D02*
X372960D01*
X347814D02*
X351624D01*
X407758Y190450D02*
X411568D01*
X386930D02*
X389978D01*
X378548D02*
X381596D01*
X370420D02*
X373214D01*
X347814D02*
X351624D01*
X407504Y190704D02*
X411314D01*
X386676D02*
X389978D01*
X378548D02*
X381596D01*
X370166D02*
X373468D01*
X348068D02*
X351878D01*
X407250Y190958D02*
X411060D01*
X386422D02*
X390232D01*
X378040D02*
X381850D01*
X369912D02*
X373468D01*
X348068D02*
X351878D01*
X407250Y191212D02*
X411060D01*
X386422D02*
X390232D01*
X378040D02*
X382104D01*
X369658D02*
X373722D01*
X348322D02*
X352132D01*
X406996Y191466D02*
X410806D01*
X386422D02*
X390486D01*
X378294D02*
X382104D01*
X369912D02*
X373722D01*
X348322D02*
X352132D01*
X406996Y191720D02*
X410806D01*
X386676D02*
X390486D01*
X378294D02*
X382358D01*
X370166D02*
X373976D01*
X348576D02*
X352386D01*
X406742Y191974D02*
X410552D01*
X386930D02*
X390740D01*
X378548D02*
X382358D01*
X370166D02*
X373976D01*
X348830D02*
X352640D01*
X406742Y192228D02*
X410552D01*
X386930D02*
X390740D01*
X378802D02*
X382612D01*
X370420D02*
X374230D01*
X348830D02*
X352640D01*
X406488Y192482D02*
X410298D01*
X387184D02*
X390994D01*
X378802D02*
X382612D01*
X370674D02*
X374230D01*
X349084D02*
X352894D01*
X406234Y192736D02*
X410044D01*
X387438D02*
X390994D01*
X379056D02*
X382612D01*
X370674D02*
X374484D01*
X349084D02*
X352894D01*
X406234Y192990D02*
X410044D01*
X387438D02*
X390994D01*
X379056D02*
X382866D01*
X370928D02*
X374484D01*
X349338D02*
X353148D01*
X405980Y193244D02*
X409790D01*
X387692D02*
X391248D01*
X379310D02*
X382866D01*
X370928D02*
X374484D01*
X349592D02*
X353402D01*
X405980Y193498D02*
X409790D01*
X387692D02*
X391248D01*
X379310D02*
X382866D01*
X371182D02*
X374738D01*
X349592D02*
X353402D01*
X405726Y193752D02*
X409536D01*
X387946D02*
X391248D01*
X379564D02*
X383120D01*
X371182D02*
X374738D01*
X349846D02*
X353656D01*
X405472Y194006D02*
X409282D01*
X387946D02*
X391502D01*
X379564D02*
X383120D01*
X371182D02*
X374738D01*
X349846D02*
X353656D01*
X405472Y194260D02*
X409282D01*
X387946D02*
X391502D01*
X379818D02*
X383120D01*
X371436D02*
X374738D01*
X350100D02*
X353910D01*
X405218Y194514D02*
X409028D01*
X388200D02*
X391502D01*
X379818D02*
X383120D01*
X371436D02*
X374992D01*
X350100D02*
X353910D01*
X405218Y194768D02*
X409028D01*
X388200D02*
X391502D01*
X379818D02*
X383120D01*
X371436D02*
X374992D01*
X350354D02*
X354164D01*
X404964Y195022D02*
X408774D01*
X388200D02*
X391502D01*
X379818D02*
X383374D01*
X371690D02*
X374992D01*
X350608D02*
X354418D01*
X404964Y195276D02*
X408774D01*
X388200D02*
X391502D01*
X380072D02*
X383374D01*
X371690D02*
X374992D01*
X350608D02*
X354418D01*
X404710Y195530D02*
X408520D01*
X388200D02*
X391756D01*
X380072D02*
X383374D01*
X371690D02*
X374992D01*
X350862D02*
X354672D01*
X404456Y195784D02*
X408266D01*
X388454D02*
X391756D01*
X380072D02*
X383374D01*
X371690D02*
X374992D01*
X350862D02*
X354672D01*
X404456Y196038D02*
X408266D01*
X388454D02*
X391756D01*
X380072D02*
X383374D01*
X371690D02*
X374992D01*
X351116D02*
X354926D01*
X404202Y196292D02*
X408012D01*
X388454D02*
X391756D01*
X380072D02*
X383374D01*
X371690D02*
X374992D01*
X351116D02*
X354926D01*
X404202Y196546D02*
X408012D01*
X388454D02*
X391756D01*
X380072D02*
X383374D01*
X371690D02*
X374992D01*
X351370D02*
X355180D01*
X403948Y196800D02*
X407758D01*
X388454D02*
X391756D01*
X380072D02*
X383374D01*
X371690D02*
X374992D01*
X351624D02*
X355434D01*
X403948Y197054D02*
X407758D01*
X388454D02*
X391756D01*
X380072D02*
X383374D01*
X371690D02*
X374992D01*
X351624D02*
X355434D01*
X403694Y197308D02*
X407504D01*
X388454D02*
X391756D01*
X380072D02*
X383374D01*
X371690D02*
X374992D01*
X351878D02*
X355688D01*
X403440Y197562D02*
X407250D01*
X388454D02*
X391756D01*
X380072D02*
X383374D01*
X371690D02*
X374992D01*
X351878D02*
X355688D01*
X403440Y197816D02*
X407250D01*
X388454D02*
X391502D01*
X380072D02*
X383374D01*
X371690D02*
X374992D01*
X352132D02*
X355942D01*
X403186Y198070D02*
X406996D01*
X388200D02*
X391502D01*
X380072D02*
X383374D01*
X371690D02*
X374992D01*
X352132D02*
X355942D01*
X403186Y198324D02*
X406996D01*
X388200D02*
X391502D01*
X379818D02*
X383374D01*
X371690D02*
X374992D01*
X352386D02*
X356196D01*
X402932Y198578D02*
X406742D01*
X388200D02*
X391502D01*
X379818D02*
X383374D01*
X371690D02*
X374992D01*
X352640D02*
X356450D01*
X402932Y198832D02*
X406742D01*
X388200D02*
X391502D01*
X379818D02*
X383120D01*
X371436D02*
X374992D01*
X352640D02*
X356450D01*
X402678Y199086D02*
X406488D01*
X387946D02*
X391502D01*
X379818D02*
X383120D01*
X371436D02*
X374738D01*
X352894D02*
X356704D01*
X402424Y199340D02*
X406234D01*
X387946D02*
X391502D01*
X379564D02*
X383120D01*
X371436D02*
X374738D01*
X352894D02*
X356704D01*
X402424Y199594D02*
X406234D01*
X387946D02*
X391248D01*
X379564D02*
X383120D01*
X371182D02*
X374738D01*
X353148D02*
X356958D01*
X402170Y199848D02*
X405980D01*
X387692D02*
X391248D01*
X379564D02*
X382866D01*
X371182D02*
X374738D01*
X353402D02*
X357212D01*
X402170Y200102D02*
X405980D01*
X387692D02*
X391248D01*
X379310D02*
X382866D01*
X371182D02*
X374484D01*
X353402D02*
X357212D01*
X401916Y200356D02*
X405726D01*
X387692D02*
X391248D01*
X379310D02*
X382866D01*
X370928D02*
X374484D01*
X353656D02*
X357466D01*
X401916Y200610D02*
X405726D01*
X387438D02*
X390994D01*
X379056D02*
X382612D01*
X370928D02*
X374484D01*
X353656D02*
X357466D01*
X401662Y200864D02*
X405472D01*
X387438D02*
X390994D01*
X379056D02*
X382612D01*
X370674D02*
X374230D01*
X353910D02*
X357720D01*
X401408Y201118D02*
X405218D01*
X387184D02*
X390740D01*
X378802D02*
X382612D01*
X370674D02*
X374230D01*
X353910D02*
X357720D01*
X401408Y201372D02*
X405218D01*
X386930D02*
X390740D01*
X378802D02*
X382358D01*
X370420D02*
X374230D01*
X354164D02*
X357974D01*
X401154Y201626D02*
X404964D01*
X386930D02*
X390740D01*
X378548D02*
X382358D01*
X370166D02*
X373976D01*
X354418D02*
X357974D01*
X401154Y201880D02*
X404964D01*
X386676D02*
X390486D01*
X378548D02*
X382104D01*
X370166D02*
X373976D01*
X354418D02*
X358228D01*
X400900Y202134D02*
X404710D01*
X386676D02*
X390486D01*
X378294D02*
X382104D01*
X369912D02*
X373722D01*
X354672D02*
X358482D01*
X400646Y202388D02*
X404456D01*
X386422D02*
X390232D01*
X378040D02*
X382104D01*
X369912D02*
X373722D01*
X354672D02*
X358482D01*
X400646Y202642D02*
X404456D01*
X386168D02*
X390232D01*
X378040D02*
X381850D01*
X369658D02*
X373468D01*
X354926D02*
X358736D01*
X400392Y202896D02*
X404202D01*
X386168D02*
X389978D01*
X377786D02*
X381596D01*
X369404D02*
X373468D01*
X354926D02*
X358736D01*
X400392Y203150D02*
X404202D01*
X385914D02*
X389724D01*
X377786D02*
X381596D01*
X369404D02*
X373214D01*
X355180D02*
X358990D01*
X400138Y203404D02*
X403948D01*
X385914D02*
X389724D01*
X377532D02*
X381342D01*
X369150D02*
X372960D01*
X355434D02*
X359244D01*
X400138Y203658D02*
X403948D01*
X385660D02*
X389470D01*
X377532D02*
X381342D01*
X369150D02*
X372960D01*
X355434D02*
X359244D01*
X399884Y203912D02*
X403694D01*
X385660D02*
X389470D01*
X377278D02*
X381088D01*
X368896D02*
X372706D01*
X355688D02*
X359498D01*
X399630Y204166D02*
X403440D01*
X385406D02*
X389216D01*
X377278D02*
X380834D01*
X368896D02*
X372706D01*
X355688D02*
X359498D01*
X399630Y204420D02*
X403440D01*
X385406D02*
X389216D01*
X377024D02*
X380834D01*
X368642D02*
X372452D01*
X355942D02*
X359752D01*
X399376Y204674D02*
X403186D01*
X385152D02*
X388962D01*
X377024D02*
X380580D01*
X368642D02*
X372198D01*
X355942D02*
X359752D01*
X399376Y204928D02*
X403186D01*
X385152D02*
X388708D01*
X376770D02*
X380580D01*
X368388D02*
X372198D01*
X356196D02*
X360006D01*
X399122Y205182D02*
X402932D01*
X385152D02*
X388708D01*
X376770D02*
X380326D01*
X368388D02*
X371944D01*
X356450D02*
X360260D01*
X399122Y205436D02*
X402932D01*
X384898D02*
X388454D01*
X376516D02*
X380072D01*
X368388D02*
X371944D01*
X356450D02*
X360260D01*
X398868Y205690D02*
X402678D01*
X384898D02*
X388454D01*
X376516D02*
X380072D01*
X368134D02*
X371690D01*
X356704D02*
X360514D01*
X398614Y205944D02*
X402678D01*
X384644D02*
X388200D01*
X376516D02*
X380072D01*
X368134D02*
X371690D01*
X356704D02*
X360514D01*
X398614Y206198D02*
X402424D01*
X384644D02*
X388200D01*
X376262D02*
X379818D01*
X368134D02*
X371690D01*
X356958D02*
X360768D01*
X398360Y206452D02*
X402170D01*
X384644D02*
X388200D01*
X376262D02*
X379818D01*
X367880D02*
X371436D01*
X356958D02*
X360768D01*
X398106Y206706D02*
X401916D01*
X384644D02*
X387946D01*
X376262D02*
X379564D01*
X367880D02*
X371436D01*
X357212D02*
X361022D01*
X398106Y206960D02*
X401916D01*
X384390D02*
X387946D01*
X376262D02*
X379564D01*
X367880D02*
X371182D01*
X357466D02*
X361276D01*
X397852Y207214D02*
X401662D01*
X384390D02*
X387946D01*
X376008D02*
X379564D01*
X367880D02*
X371182D01*
X357466D02*
X361276D01*
X397852Y207468D02*
X401662D01*
X384390D02*
X387692D01*
X376008D02*
X379310D01*
X367626D02*
X371182D01*
X357720D02*
X361530D01*
X397598Y207722D02*
X401408D01*
X384136D02*
X387692D01*
X376008D02*
X379310D01*
X367626D02*
X370928D01*
X357720D02*
X361530D01*
X397598Y207976D02*
X401408D01*
X384136D02*
X387692D01*
X376008D02*
X379310D01*
X367626D02*
X370928D01*
X357974D02*
X361784D01*
X397344Y208230D02*
X401154D01*
X384136D02*
X387438D01*
X375754D02*
X379310D01*
X367626D02*
X370928D01*
X357974D02*
X362038D01*
X397090Y208484D02*
X401154D01*
X384136D02*
X387438D01*
X375754D02*
X379056D01*
X367372D02*
X370928D01*
X358228D02*
X362038D01*
X397090Y208738D02*
X400900D01*
X384136D02*
X387438D01*
X375754D02*
X379056D01*
X367372D02*
X370674D01*
X358228D02*
X362292D01*
X396836Y208992D02*
X400900D01*
X384136D02*
X387438D01*
X375754D02*
X379056D01*
X367372D02*
X370674D01*
X358482D02*
X362292D01*
X396582Y209246D02*
X400646D01*
X383882D02*
X387184D01*
X375754D02*
X379056D01*
X367372D02*
X370674D01*
X358736D02*
X362546D01*
X396582Y209500D02*
X400392D01*
X383882D02*
X387184D01*
X375754D02*
X379056D01*
X367372D02*
X370674D01*
X358736D02*
X362546D01*
X396328Y209754D02*
X400392D01*
X383882D02*
X387184D01*
X375754D02*
X379056D01*
X367372D02*
X370674D01*
X358990D02*
X362800D01*
X396074Y210008D02*
X400138D01*
X383882D02*
X387184D01*
X375754D02*
X379056D01*
X367372D02*
X370674D01*
X358990D02*
X362800D01*
X396074Y210262D02*
X399884D01*
X384136D02*
X387184D01*
X375754D02*
X379056D01*
X367372D02*
X370674D01*
X359244D02*
X363054D01*
X395820Y210516D02*
X399884D01*
X384136D02*
X387184D01*
X375754D02*
X379056D01*
X367372D02*
X370674D01*
X359498D02*
X363308D01*
X395820Y210770D02*
X399630D01*
X384136D02*
X387184D01*
X375754D02*
X379056D01*
X367372D02*
X370674D01*
X359498D02*
X363308D01*
X395566Y211024D02*
X399630D01*
X384136D02*
X387438D01*
X375754D02*
X379056D01*
X367372D02*
X370674D01*
X359752D02*
X363562D01*
X395566Y211278D02*
X399376D01*
X384136D02*
X387438D01*
X375754D02*
X379056D01*
X367626D02*
X370928D01*
X360006D02*
X363562D01*
X395312Y211532D02*
X399376D01*
X384136D02*
X387438D01*
X375754D02*
X379056D01*
X367626D02*
X370928D01*
X360006D02*
X363816D01*
X395312Y211786D02*
X399122D01*
X384136D02*
X387692D01*
X375754D02*
X379310D01*
X367626D02*
X370928D01*
X360260D02*
X363816D01*
X395312Y212040D02*
X399122D01*
X384136D02*
X387692D01*
X376008D02*
X379310D01*
X367626D02*
X371182D01*
X360260D02*
X364070D01*
X395058Y212294D02*
X398868D01*
X384390D02*
X387692D01*
X376008D02*
X379564D01*
X367626D02*
X371182D01*
X360514D02*
X364324D01*
X394804Y212548D02*
X398614D01*
X384390D02*
X387946D01*
X376008D02*
X379564D01*
X367880D02*
X371182D01*
X360514D02*
X364324D01*
X394804Y212802D02*
X398614D01*
X384390D02*
X387946D01*
X376008D02*
X379564D01*
X367880D02*
X371436D01*
X360768D02*
X364578D01*
X394550Y213056D02*
X398360D01*
X384390D02*
X388200D01*
X376262D02*
X379818D01*
X367880D02*
X371436D01*
X361022D02*
X364832D01*
X394550Y213310D02*
X398360D01*
X384644D02*
X388200D01*
X376262D02*
X379818D01*
X367880D02*
X371690D01*
X361022D02*
X364832D01*
X394296Y213564D02*
X398106D01*
X384644D02*
X388454D01*
X376262D02*
X380072D01*
X368134D02*
X371690D01*
X361276D02*
X365086D01*
X394296Y213818D02*
X397852D01*
X384898D02*
X388454D01*
X376516D02*
X380326D01*
X368134D02*
X371944D01*
X361276D02*
X365086D01*
X394042Y214072D02*
X397852D01*
X384898D02*
X388708D01*
X376516D02*
X380326D01*
X368388D02*
X371944D01*
X361530D02*
X365340D01*
X393788Y214326D02*
X397598D01*
X384898D02*
X388708D01*
X376770D02*
X380580D01*
X368388D02*
X372198D01*
X361530D02*
X365340D01*
X393788Y214580D02*
X397598D01*
X385152D02*
X388962D01*
X376770D02*
X380580D01*
X368642D02*
X372452D01*
X361784D02*
X365594D01*
X393534Y214834D02*
X397344D01*
X385406D02*
X388962D01*
X377024D02*
X380580D01*
X368642D02*
X372452D01*
X362038D02*
X365848D01*
X393534Y215088D02*
X397344D01*
X385406D02*
X388454D01*
X377024D02*
X380326D01*
X368896D02*
X371944D01*
X362038D02*
X365848D01*
X393280Y215342D02*
X397090D01*
X385660D02*
X388200D01*
X377278D02*
X379818D01*
X368896D02*
X371436D01*
X362292D02*
X366102D01*
X393026Y215596D02*
X396836D01*
X385660D02*
X387692D01*
X377278D02*
X379564D01*
X369150D02*
X371182D01*
X362292D02*
X366102D01*
X393026Y215850D02*
X396836D01*
X385914D02*
X387438D01*
X377532D02*
X379056D01*
X369150D02*
X370674D01*
X362546D02*
X366356D01*
X392772Y216104D02*
X396582D01*
X385914D02*
X386930D01*
X377786D02*
X378548D01*
X369404D02*
X370420D01*
X362546D02*
X366356D01*
X392772Y216358D02*
X396582D01*
X386168D02*
X386422D01*
X377786D02*
X378294D01*
X369658D02*
X369912D01*
X362800D02*
X366610D01*
X392518Y216612D02*
X396328D01*
X363054D02*
X366864D01*
X392518Y216866D02*
X396328D01*
X363054D02*
X366864D01*
X392264Y217120D02*
X396074D01*
X363308D02*
X367118D01*
X392010Y217374D02*
X395820D01*
X363308D02*
X367118D01*
X392010Y217628D02*
X395820D01*
X363562D02*
X367372D01*
X391756Y217882D02*
X395566D01*
X363816D02*
X367372D01*
X391756Y218136D02*
X395566D01*
X363816D02*
X367626D01*
X391502Y218390D02*
X395312D01*
X364070D02*
X367880D01*
X391248Y218644D02*
X395312D01*
X364070D02*
X367880D01*
X391248Y218898D02*
X395058D01*
X364324D02*
X368134D01*
X390994Y219152D02*
X394804D01*
X364324D02*
X368134D01*
X390994Y219406D02*
X394804D01*
X364578D02*
X368388D01*
X390740Y219660D02*
X394550D01*
X364832D02*
X368642D01*
X390740Y219914D02*
X394550D01*
X364832D02*
X368642D01*
X390486Y220168D02*
X394296D01*
X365086D02*
X368896D01*
X390232Y220422D02*
X394042D01*
X365086D02*
X368896D01*
X390232Y220676D02*
X394042D01*
X365340D02*
X369150D01*
X389978Y220930D02*
X393788D01*
X365340D02*
X369150D01*
X389978Y221184D02*
X393788D01*
X365594D02*
X369404D01*
X389724Y221438D02*
X393534D01*
X365848D02*
X369658D01*
X389724Y221692D02*
X393534D01*
X365848D02*
X369658D01*
X389470Y221946D02*
X393280D01*
X366102D02*
X369912D01*
X389216Y222200D02*
X393026D01*
X366102D02*
X369912D01*
X389216Y222454D02*
X393026D01*
X366356D02*
X370166D01*
X388962Y222708D02*
X392772D01*
X366356D02*
X370166D01*
X388962Y222962D02*
X392772D01*
X366610D02*
X370420D01*
X388708Y223216D02*
X392518D01*
X366864D02*
X370674D01*
X388708Y223470D02*
X392518D01*
X366864D02*
X370674D01*
X388454Y223724D02*
X392264D01*
X367118D02*
X370928D01*
X388200Y223978D02*
X392010D01*
X367118D02*
X370928D01*
X388200Y224232D02*
X392010D01*
X367372D02*
X371182D01*
X387946Y224486D02*
X391756D01*
X367626D02*
X371436D01*
X387946Y224740D02*
X391756D01*
X367626D02*
X371436D01*
X387692Y224994D02*
X391502D01*
X367880D02*
X371690D01*
X387438Y225248D02*
X391248D01*
X367880D02*
X371690D01*
X387438Y225502D02*
X391248D01*
X368134D02*
X371944D01*
X387184Y225756D02*
X390994D01*
X368134D02*
X371944D01*
X387184Y226010D02*
X390994D01*
X368388D02*
X372198D01*
X386930Y226264D02*
X390740D01*
X368642D02*
X372452D01*
X386930Y226518D02*
X390740D01*
X368642D02*
X372452D01*
X386676Y226772D02*
X390486D01*
X368896D02*
X372706D01*
X386422Y227026D02*
X390232D01*
X368896D02*
X372706D01*
X386422Y227280D02*
X390232D01*
X369150D02*
X372960D01*
X386168Y227534D02*
X389978D01*
X369150D02*
X372960D01*
X386168Y227788D02*
X389978D01*
X369404D02*
X373214D01*
X385914Y228042D02*
X389724D01*
X369658D02*
X373468D01*
X385914Y228296D02*
X389724D01*
X369658D02*
X373468D01*
X385660Y228550D02*
X389470D01*
X369912D02*
X373722D01*
X385406Y228804D02*
X389216D01*
X369912D02*
X373722D01*
X385406Y229058D02*
X389216D01*
X370166D02*
X373976D01*
X385152Y229312D02*
X388962D01*
X370166D02*
X373976D01*
X385152Y229566D02*
X388962D01*
X370420D02*
X374230D01*
X384898Y229820D02*
X388708D01*
X370674D02*
X374484D01*
X384898Y230074D02*
X388708D01*
X370674D02*
X374484D01*
X384644Y230328D02*
X388454D01*
X370928D02*
X374738D01*
X384390Y230582D02*
X388200D01*
X370928D02*
X374738D01*
X384390Y230836D02*
X388200D01*
X371182D02*
X374992D01*
X384136Y231090D02*
X387946D01*
X371182D02*
X374992D01*
X384136Y231344D02*
X387946D01*
X371436D02*
X375246D01*
X383882Y231598D02*
X387692D01*
X371690D02*
X375500D01*
X383628Y231852D02*
X387438D01*
X371690D02*
X375500D01*
X383628Y232106D02*
X387438D01*
X371944D02*
X375754D01*
X383374Y232360D02*
X387184D01*
X371944D02*
X375754D01*
X383374Y232614D02*
X387184D01*
X372198D02*
X376008D01*
X383120Y232868D02*
X386930D01*
X372452D02*
X376262D01*
X383120Y233122D02*
X386930D01*
X372452D02*
X376262D01*
X382866Y233376D02*
X386676D01*
X372706D02*
X376516D01*
X382612Y233630D02*
X386422D01*
X372706D02*
X376516D01*
X382612Y233884D02*
X386422D01*
X372960D02*
X376770D01*
X382358Y234138D02*
X386168D01*
X372960D02*
X376770D01*
X382358Y234392D02*
X386168D01*
X373214D02*
X377024D01*
X382104Y234646D02*
X385914D01*
X373468D02*
X377278D01*
X382104Y234900D02*
X385914D01*
X373468D02*
X377278D01*
X381850Y235154D02*
X385660D01*
X373722D02*
X377532D01*
X381596Y235408D02*
X385406D01*
X373722D02*
X377532D01*
X381596Y235662D02*
X385406D01*
X373976D02*
X377786D01*
X381342Y235916D02*
X385152D01*
X374230D02*
X377786D01*
X381342Y236170D02*
X385152D01*
X374230D02*
X378040D01*
X381088Y236424D02*
X384898D01*
X374484D02*
X378294D01*
X381088Y236678D02*
X384898D01*
X374484D02*
X378294D01*
X380834Y236932D02*
X384644D01*
X374738D02*
X378548D01*
X380580Y237186D02*
X384390D01*
X374738D02*
X378802D01*
X380072Y237440D02*
X384390D01*
X374992D02*
X379056D01*
X375246Y237694D02*
X384136D01*
X375246Y237948D02*
X384136D01*
X375500Y238202D02*
X383882D01*
X375500Y238456D02*
X383628D01*
X375754Y238710D02*
X383628D01*
X376008Y238964D02*
X383374D01*
X376008Y239218D02*
X383120D01*
X376262Y239472D02*
X382866D01*
X376516Y239726D02*
X382612D01*
X377024Y239980D02*
X382358D01*
X377278Y240234D02*
X382104D01*
X377786Y240488D02*
X381342D01*
X378802Y240742D02*
X380580D01*
X398868Y245568D02*
X401408D01*
X369658D02*
X372198D01*
X345782D02*
X348068D01*
X397852Y245822D02*
X402424D01*
X368642D02*
X373214D01*
X344766D02*
X349084D01*
X413854Y246076D02*
X417664D01*
X407758D02*
X411060D01*
X397344D02*
X402932D01*
X388708D02*
X392518D01*
X380326D02*
X384136D01*
X367880D02*
X373722D01*
X361022D02*
X364832D01*
X353402D02*
X357212D01*
X344258D02*
X349846D01*
X413600Y246330D02*
X417664D01*
X407758D02*
X411060D01*
X396836D02*
X403440D01*
X388708D02*
X392518D01*
X380326D02*
X384136D01*
X367626D02*
X374230D01*
X361022D02*
X364578D01*
X353402D02*
X357212D01*
X343750D02*
X350100D01*
X413600Y246584D02*
X417664D01*
X407758D02*
X411060D01*
X396582D02*
X403694D01*
X388708D02*
X392518D01*
X380326D02*
X384136D01*
X367372D02*
X374484D01*
X361022D02*
X364578D01*
X353656D02*
X357212D01*
X343242D02*
X350608D01*
X413600Y246838D02*
X417664D01*
X407758D02*
X411060D01*
X396328D02*
X403948D01*
X388708D02*
X392518D01*
X380326D02*
X384136D01*
X367118D02*
X374738D01*
X360768D02*
X364578D01*
X353656D02*
X357212D01*
X342988D02*
X350862D01*
X413346Y247092D02*
X417664D01*
X407758D02*
X411060D01*
X396074D02*
X404202D01*
X388708D02*
X392518D01*
X380326D02*
X384136D01*
X366864D02*
X374992D01*
X360768D02*
X364578D01*
X353656D02*
X357466D01*
X342734D02*
X351116D01*
X413346Y247346D02*
X417664D01*
X407758D02*
X411060D01*
X395820D02*
X404456D01*
X388708D02*
X392518D01*
X380326D02*
X384136D01*
X366610D02*
X375246D01*
X360768D02*
X364324D01*
X353656D02*
X357466D01*
X342734D02*
X351116D01*
X413346Y247600D02*
X417664D01*
X407758D02*
X411060D01*
X395566D02*
X404710D01*
X388708D02*
X392518D01*
X380326D02*
X384136D01*
X366610D02*
X375246D01*
X360768D02*
X364324D01*
X353656D02*
X357466D01*
X342480D02*
X351370D01*
X413346Y247854D02*
X417664D01*
X407758D02*
X411060D01*
X395566D02*
X404710D01*
X388708D02*
X392518D01*
X380326D02*
X384136D01*
X366356D02*
X375500D01*
X360768D02*
X364324D01*
X353910D02*
X357466D01*
X342226D02*
X351370D01*
X413092Y248108D02*
X417664D01*
X407758D02*
X411060D01*
X395312D02*
X404964D01*
X388708D02*
X392518D01*
X380326D02*
X384136D01*
X366356D02*
X375500D01*
X360768D02*
X364324D01*
X353910D02*
X357466D01*
X342226D02*
X351624D01*
X413092Y248362D02*
X417664D01*
X407758D02*
X411060D01*
X395312D02*
X404964D01*
X388708D02*
X392518D01*
X380326D02*
X384136D01*
X366102D02*
X375500D01*
X360514D02*
X364324D01*
X353910D02*
X357466D01*
X342226D02*
X351624D01*
X413092Y248616D02*
X417664D01*
X407758D02*
X411060D01*
X400900D02*
X404964D01*
X395312D02*
X399630D01*
X388708D02*
X392518D01*
X380326D02*
X384136D01*
X371436D02*
X375754D01*
X366102D02*
X370420D01*
X360514D02*
X364070D01*
X353910D02*
X357466D01*
X347560D02*
X351878D01*
X341972D02*
X346290D01*
X412838Y248870D02*
X417664D01*
X407758D02*
X411060D01*
X401154D02*
X405218D01*
X395312D02*
X399122D01*
X388708D02*
X392518D01*
X380326D02*
X384136D01*
X371690D02*
X375754D01*
X366102D02*
X369912D01*
X360514D02*
X364070D01*
X354164D02*
X357720D01*
X347814D02*
X351878D01*
X341972D02*
X346036D01*
X412838Y249124D02*
X417664D01*
X407758D02*
X411060D01*
X401408D02*
X405218D01*
X395058D02*
X398868D01*
X388708D02*
X392518D01*
X380326D02*
X384136D01*
X371944D02*
X375754D01*
X366102D02*
X369912D01*
X354164D02*
X364070D01*
X348068D02*
X351878D01*
X341972D02*
X345782D01*
X412838Y249378D02*
X417664D01*
X407758D02*
X411060D01*
X401408D02*
X405218D01*
X395058D02*
X398868D01*
X388708D02*
X392518D01*
X380326D02*
X384136D01*
X371944D02*
X375754D01*
X366102D02*
X369658D01*
X354164D02*
X364070D01*
X348322D02*
X351878D01*
X341718D02*
X345782D01*
X412584Y249632D02*
X417664D01*
X407758D02*
X411060D01*
X401408D02*
X405218D01*
X395058D02*
X398868D01*
X388708D02*
X392518D01*
X380326D02*
X384136D01*
X372198D02*
X375754D01*
X365848D02*
X369658D01*
X354164D02*
X364070D01*
X348322D02*
X352132D01*
X341718D02*
X345528D01*
X412584Y249886D02*
X417664D01*
X407758D02*
X411060D01*
X401662D02*
X405218D01*
X395058D02*
X398868D01*
X388708D02*
X392518D01*
X380326D02*
X384136D01*
X372198D02*
X375754D01*
X365848D02*
X369658D01*
X354164D02*
X363816D01*
X348322D02*
X352132D01*
X341718D02*
X345528D01*
X412584Y250140D02*
X417664D01*
X407758D02*
X411060D01*
X401662D02*
X405472D01*
X395058D02*
X398614D01*
X388708D02*
X392518D01*
X380326D02*
X384136D01*
X372198D02*
X375754D01*
X365848D02*
X369658D01*
X354418D02*
X363816D01*
X348322D02*
X352132D01*
X341718D02*
X345528D01*
X412330Y250394D02*
X417664D01*
X407758D02*
X411060D01*
X401662D02*
X405472D01*
X395058D02*
X398614D01*
X388708D02*
X392518D01*
X380326D02*
X384136D01*
X372198D02*
X375754D01*
X365848D02*
X369658D01*
X354418D02*
X363816D01*
X348322D02*
X352132D01*
X341718D02*
X345528D01*
X412330Y250648D02*
X417664D01*
X407758D02*
X411060D01*
X401662D02*
X405472D01*
X394804D02*
X398614D01*
X388708D02*
X392518D01*
X380326D02*
X384136D01*
X372198D02*
X376008D01*
X365848D02*
X369658D01*
X354418D02*
X363816D01*
X348322D02*
X352132D01*
X341718D02*
X345528D01*
X412330Y250902D02*
X417664D01*
X407758D02*
X411060D01*
X401662D02*
X405472D01*
X394804D02*
X398614D01*
X388708D02*
X392518D01*
X380326D02*
X384136D01*
X372198D02*
X376008D01*
X365848D02*
X369658D01*
X354418D02*
X363562D01*
X348322D02*
X352132D01*
X341718D02*
X345528D01*
X412330Y251156D02*
X417664D01*
X407758D02*
X411060D01*
X401662D02*
X405472D01*
X394804D02*
X398614D01*
X388708D02*
X392518D01*
X380326D02*
X384136D01*
X372198D02*
X376008D01*
X365848D02*
X369658D01*
X354672D02*
X363562D01*
X348322D02*
X352132D01*
X341718D02*
X345528D01*
X412076Y251410D02*
X417664D01*
X407758D02*
X411060D01*
X401662D02*
X405472D01*
X394804D02*
X398614D01*
X388708D02*
X392518D01*
X380326D02*
X384136D01*
X372198D02*
X376008D01*
X365848D02*
X369658D01*
X354672D02*
X363562D01*
X348322D02*
X352132D01*
X341718D02*
X345528D01*
X412076Y251664D02*
X417664D01*
X407758D02*
X411060D01*
X401662D02*
X405472D01*
X394804D02*
X398614D01*
X388708D02*
X392518D01*
X380326D02*
X384136D01*
X372198D02*
X376008D01*
X365848D02*
X369658D01*
X354672D02*
X363562D01*
X348322D02*
X352132D01*
X341718D02*
X345528D01*
X412076Y251918D02*
X417664D01*
X407758D02*
X411060D01*
X401662D02*
X405472D01*
X394804D02*
X398614D01*
X388708D02*
X392518D01*
X380326D02*
X384136D01*
X372198D02*
X376008D01*
X365848D02*
X369658D01*
X360006D02*
X363562D01*
X354672D02*
X357974D01*
X348322D02*
X352132D01*
X341718D02*
X345274D01*
X411822Y252172D02*
X417664D01*
X407758D02*
X411060D01*
X401662D02*
X405472D01*
X394804D02*
X398614D01*
X388708D02*
X392518D01*
X380326D02*
X384136D01*
X372198D02*
X376008D01*
X365848D02*
X369658D01*
X360006D02*
X363308D01*
X354672D02*
X357974D01*
X341718D02*
X345274D01*
X411822Y252426D02*
X417664D01*
X407758D02*
X411060D01*
X401662D02*
X405472D01*
X394804D02*
X398614D01*
X388708D02*
X392518D01*
X380326D02*
X384136D01*
X372198D02*
X376008D01*
X365848D02*
X369658D01*
X360006D02*
X363308D01*
X354926D02*
X358228D01*
X341718D02*
X345274D01*
X411822Y252680D02*
X417664D01*
X407758D02*
X411060D01*
X401662D02*
X405472D01*
X394804D02*
X398614D01*
X388708D02*
X392518D01*
X380326D02*
X384136D01*
X372198D02*
X376008D01*
X365848D02*
X369658D01*
X360006D02*
X363308D01*
X354926D02*
X358228D01*
X341718D02*
X345274D01*
X414616Y252934D02*
X417664D01*
X411568D02*
X414362D01*
X407758D02*
X411060D01*
X401662D02*
X405472D01*
X394804D02*
X398614D01*
X388708D02*
X392518D01*
X380326D02*
X384136D01*
X372198D02*
X376008D01*
X365848D02*
X369658D01*
X360006D02*
X363308D01*
X354926D02*
X358228D01*
X341464D02*
X345274D01*
X414616Y253188D02*
X417664D01*
X411568D02*
X414362D01*
X407758D02*
X411060D01*
X401662D02*
X405472D01*
X394804D02*
X398614D01*
X388708D02*
X392518D01*
X380326D02*
X384136D01*
X372198D02*
X376008D01*
X365848D02*
X369658D01*
X360006D02*
X363054D01*
X354926D02*
X358228D01*
X341464D02*
X345274D01*
X414616Y253442D02*
X417664D01*
X411568D02*
X414362D01*
X407758D02*
X411060D01*
X401662D02*
X405472D01*
X394804D02*
X398614D01*
X388708D02*
X392518D01*
X380326D02*
X384136D01*
X372198D02*
X376008D01*
X365848D02*
X369658D01*
X360006D02*
X363054D01*
X354926D02*
X358228D01*
X341464D02*
X345274D01*
X414616Y253696D02*
X417664D01*
X411314D02*
X414362D01*
X407758D02*
X411060D01*
X401662D02*
X405472D01*
X394804D02*
X398614D01*
X388708D02*
X392518D01*
X380326D02*
X384136D01*
X372198D02*
X376008D01*
X365848D02*
X369658D01*
X359752D02*
X363054D01*
X355180D02*
X358228D01*
X341464D02*
X345274D01*
X414616Y253950D02*
X417664D01*
X411314D02*
X414108D01*
X407758D02*
X410806D01*
X401662D02*
X405472D01*
X394804D02*
X398614D01*
X388708D02*
X392518D01*
X380326D02*
X384136D01*
X372198D02*
X376008D01*
X365848D02*
X369658D01*
X359752D02*
X363054D01*
X355180D02*
X358228D01*
X341464D02*
X345274D01*
X414616Y254204D02*
X417664D01*
X411314D02*
X414108D01*
X407758D02*
X410806D01*
X401662D02*
X405472D01*
X394804D02*
X398614D01*
X388708D02*
X392518D01*
X380326D02*
X384136D01*
X372198D02*
X376008D01*
X365848D02*
X369658D01*
X359752D02*
X363054D01*
X355180D02*
X358482D01*
X341464D02*
X345274D01*
X414616Y254458D02*
X417664D01*
X411314D02*
X414108D01*
X407758D02*
X410806D01*
X401662D02*
X405472D01*
X394804D02*
X398614D01*
X388708D02*
X392518D01*
X380326D02*
X384136D01*
X372198D02*
X376008D01*
X365848D02*
X369658D01*
X359752D02*
X362800D01*
X355180D02*
X358482D01*
X341464D02*
X345274D01*
X414616Y254712D02*
X417664D01*
X411060D02*
X413854D01*
X407758D02*
X410806D01*
X401662D02*
X405472D01*
X394804D02*
X398614D01*
X388708D02*
X392518D01*
X380326D02*
X384136D01*
X372198D02*
X376008D01*
X365848D02*
X369658D01*
X359752D02*
X362800D01*
X355434D02*
X358482D01*
X341464D02*
X345274D01*
X414616Y254966D02*
X417664D01*
X411060D02*
X413854D01*
X407758D02*
X410806D01*
X401662D02*
X405472D01*
X394804D02*
X398614D01*
X388708D02*
X392518D01*
X380326D02*
X384136D01*
X372198D02*
X376008D01*
X365848D02*
X369658D01*
X359752D02*
X362800D01*
X355434D02*
X358482D01*
X341464D02*
X345274D01*
X414616Y255220D02*
X417664D01*
X411060D02*
X413854D01*
X407758D02*
X410806D01*
X401662D02*
X405472D01*
X394804D02*
X398614D01*
X388708D02*
X392518D01*
X380326D02*
X384136D01*
X372198D02*
X376008D01*
X365848D02*
X369658D01*
X359498D02*
X362800D01*
X355434D02*
X358482D01*
X341718D02*
X345274D01*
X414616Y255474D02*
X417664D01*
X407758D02*
X413600D01*
X401662D02*
X405472D01*
X394804D02*
X398614D01*
X388708D02*
X392518D01*
X380326D02*
X384136D01*
X372198D02*
X376008D01*
X365848D02*
X369658D01*
X359498D02*
X362800D01*
X355434D02*
X358482D01*
X341718D02*
X345274D01*
X414616Y255728D02*
X417664D01*
X407758D02*
X413600D01*
X401662D02*
X405472D01*
X394804D02*
X398614D01*
X388708D02*
X392518D01*
X380326D02*
X384136D01*
X372198D02*
X376008D01*
X365848D02*
X369658D01*
X359498D02*
X362546D01*
X355434D02*
X358736D01*
X341718D02*
X345274D01*
X414616Y255982D02*
X417664D01*
X407758D02*
X413600D01*
X401662D02*
X405472D01*
X394804D02*
X398614D01*
X388708D02*
X392518D01*
X380326D02*
X384136D01*
X372198D02*
X376008D01*
X365848D02*
X369658D01*
X359498D02*
X362546D01*
X355688D02*
X358736D01*
X341718D02*
X345274D01*
X414616Y256236D02*
X417664D01*
X407758D02*
X413346D01*
X401662D02*
X405472D01*
X394804D02*
X398614D01*
X388708D02*
X392518D01*
X380326D02*
X384136D01*
X372198D02*
X376008D01*
X365848D02*
X369658D01*
X359498D02*
X362546D01*
X355688D02*
X358736D01*
X350862D02*
X351116D01*
X341718D02*
X345528D01*
X414362Y256490D02*
X417664D01*
X407758D02*
X413346D01*
X401662D02*
X405472D01*
X394804D02*
X398614D01*
X388708D02*
X392518D01*
X380326D02*
X384136D01*
X372198D02*
X376008D01*
X365848D02*
X369658D01*
X359498D02*
X362546D01*
X355688D02*
X358736D01*
X348576D02*
X352132D01*
X341718D02*
X345528D01*
X414362Y256744D02*
X417664D01*
X407758D02*
X413346D01*
X401662D02*
X405472D01*
X394804D02*
X398614D01*
X388708D02*
X392518D01*
X380326D02*
X384136D01*
X372198D02*
X376008D01*
X365848D02*
X369658D01*
X359498D02*
X362292D01*
X355688D02*
X358736D01*
X348576D02*
X352132D01*
X341718D02*
X345528D01*
X414362Y256998D02*
X417664D01*
X407758D02*
X413092D01*
X401662D02*
X405472D01*
X394804D02*
X398614D01*
X388708D02*
X392518D01*
X380326D02*
X384136D01*
X372198D02*
X376008D01*
X365848D02*
X369658D01*
X359244D02*
X362292D01*
X355942D02*
X358736D01*
X348322D02*
X352132D01*
X341718D02*
X345528D01*
X414362Y257252D02*
X417664D01*
X407758D02*
X413092D01*
X401662D02*
X405472D01*
X395058D02*
X398614D01*
X388708D02*
X392518D01*
X380326D02*
X384136D01*
X372198D02*
X376008D01*
X365848D02*
X369658D01*
X359244D02*
X362292D01*
X355942D02*
X358736D01*
X348322D02*
X352132D01*
X341718D02*
X345528D01*
X414362Y257506D02*
X417664D01*
X407758D02*
X413092D01*
X401662D02*
X405472D01*
X395058D02*
X398614D01*
X388708D02*
X392518D01*
X380326D02*
X384136D01*
X372198D02*
X376008D01*
X365848D02*
X369658D01*
X359244D02*
X362292D01*
X355942D02*
X358990D01*
X348322D02*
X352132D01*
X341718D02*
X345528D01*
X414362Y257760D02*
X417664D01*
X407758D02*
X412838D01*
X401662D02*
X405472D01*
X395058D02*
X398868D01*
X388708D02*
X392518D01*
X380326D02*
X384136D01*
X372198D02*
X376008D01*
X365848D02*
X369658D01*
X359244D02*
X362292D01*
X355942D02*
X358990D01*
X348322D02*
X352132D01*
X341718D02*
X345528D01*
X414362Y258014D02*
X417664D01*
X407758D02*
X412838D01*
X401408D02*
X405218D01*
X395058D02*
X398868D01*
X388708D02*
X392518D01*
X380326D02*
X384136D01*
X372198D02*
X376008D01*
X365848D02*
X369658D01*
X359244D02*
X362038D01*
X355942D02*
X358990D01*
X348322D02*
X351878D01*
X341718D02*
X345528D01*
X414362Y258268D02*
X417664D01*
X407758D02*
X412838D01*
X401408D02*
X405218D01*
X395058D02*
X398868D01*
X388708D02*
X392518D01*
X380326D02*
X384136D01*
X372198D02*
X376008D01*
X365848D02*
X369658D01*
X359244D02*
X362038D01*
X356196D02*
X358990D01*
X348322D02*
X351878D01*
X341718D02*
X345528D01*
X414362Y258522D02*
X417664D01*
X407758D02*
X412838D01*
X401408D02*
X405218D01*
X395058D02*
X398868D01*
X388708D02*
X392518D01*
X380326D02*
X384136D01*
X372198D02*
X376008D01*
X365848D02*
X369658D01*
X356196D02*
X362038D01*
X348068D02*
X351878D01*
X341972D02*
X345782D01*
X414362Y258776D02*
X417664D01*
X407758D02*
X412584D01*
X401154D02*
X405218D01*
X395058D02*
X399122D01*
X388708D02*
X392518D01*
X377532D02*
X387184D01*
X372198D02*
X376008D01*
X365848D02*
X369658D01*
X356196D02*
X362038D01*
X347814D02*
X351878D01*
X341972D02*
X346036D01*
X414362Y259030D02*
X417664D01*
X407758D02*
X412584D01*
X400900D02*
X404964D01*
X395312D02*
X399376D01*
X388708D02*
X392518D01*
X377532D02*
X387184D01*
X372198D02*
X376008D01*
X365848D02*
X369658D01*
X356196D02*
X362038D01*
X347560D02*
X351624D01*
X341972D02*
X346290D01*
X414362Y259284D02*
X417664D01*
X407758D02*
X412584D01*
X395312D02*
X404964D01*
X388708D02*
X392518D01*
X377532D02*
X387438D01*
X372198D02*
X376008D01*
X365848D02*
X369658D01*
X356450D02*
X361784D01*
X341972D02*
X351624D01*
X414362Y259538D02*
X417664D01*
X407758D02*
X412330D01*
X395312D02*
X404964D01*
X388708D02*
X392518D01*
X377532D02*
X387184D01*
X372198D02*
X376008D01*
X365848D02*
X369658D01*
X356450D02*
X361784D01*
X342226D02*
X351624D01*
X414362Y259792D02*
X417664D01*
X407758D02*
X412330D01*
X395566D02*
X404710D01*
X388708D02*
X392518D01*
X377532D02*
X387184D01*
X372198D02*
X376008D01*
X365848D02*
X369658D01*
X356450D02*
X361784D01*
X342226D02*
X351370D01*
X414362Y260046D02*
X417664D01*
X407758D02*
X412330D01*
X395566D02*
X404710D01*
X388708D02*
X392518D01*
X377532D02*
X387184D01*
X372198D02*
X376008D01*
X365848D02*
X369658D01*
X356450D02*
X361784D01*
X342480D02*
X351370D01*
X414362Y260300D02*
X417664D01*
X407758D02*
X412076D01*
X395820D02*
X404456D01*
X388708D02*
X392518D01*
X377532D02*
X387184D01*
X372198D02*
X376008D01*
X365848D02*
X369658D01*
X356450D02*
X361530D01*
X342480D02*
X351116D01*
X414362Y260554D02*
X417664D01*
X407758D02*
X412076D01*
X396074D02*
X404202D01*
X388708D02*
X392518D01*
X377532D02*
X387184D01*
X372198D02*
X376008D01*
X365848D02*
X369658D01*
X356704D02*
X361530D01*
X342734D02*
X350862D01*
X414362Y260808D02*
X417664D01*
X407758D02*
X412076D01*
X396328D02*
X404202D01*
X388708D02*
X392518D01*
X377532D02*
X387184D01*
X372198D02*
X376008D01*
X365848D02*
X369658D01*
X356704D02*
X361530D01*
X342988D02*
X350862D01*
X414362Y261062D02*
X417664D01*
X407758D02*
X411822D01*
X396582D02*
X403694D01*
X388708D02*
X392518D01*
X377532D02*
X387184D01*
X372198D02*
X376008D01*
X365848D02*
X369658D01*
X356704D02*
X361530D01*
X343242D02*
X350608D01*
X414362Y261316D02*
X417664D01*
X407758D02*
X411822D01*
X396836D02*
X403440D01*
X388708D02*
X392518D01*
X377532D02*
X387184D01*
X372198D02*
X376008D01*
X365848D02*
X369658D01*
X356704D02*
X361530D01*
X343496D02*
X350100D01*
X414362Y261570D02*
X417664D01*
X407758D02*
X411822D01*
X397344D02*
X403186D01*
X388708D02*
X392518D01*
X377532D02*
X387184D01*
X372198D02*
X376008D01*
X365848D02*
X369658D01*
X356704D02*
X361276D01*
X344004D02*
X349846D01*
X414616Y261824D02*
X417664D01*
X407758D02*
X411568D01*
X397852D02*
X402424D01*
X388962D02*
X392518D01*
X377532D02*
X387184D01*
X372198D02*
X375754D01*
X365848D02*
X369404D01*
X356958D02*
X361276D01*
X344512D02*
X349338D01*
X398614Y262078D02*
X401662D01*
X345528D02*
X348322D01*
M02*
